<?xml version="1.0" encoding="utf-8"?>
<!-- Generator: Adobe Illustrator 19.2.1, SVG Export Plug-In . SVG Version: 6.00 Build 0)  -->
<svg version="1.1" id="Layer_1" xmlns="http://www.w3.org/2000/svg" xmlns:xlink="http://www.w3.org/1999/xlink" x="0px" y="0px"
	 viewBox="0 0 500 500" style="enable-background:new 0 0 500 500;" xml:space="preserve">
<style type="text/css">
	.st0{fill:#156A9E;}
	.st1{fill:#1A84D5;}
	.st2{fill:#FFFFFF;}
</style>
<rect x="73.2" y="73.2" transform="matrix(0.7071 -0.7071 0.7071 0.7071 -103.5534 250)" class="st0" width="353.6" height="353.6"/>
<polygon class="st1" points="250,0 250,500 500,250 "/>
<g>
	<circle class="st2" cx="250" cy="242.5" r="130.5"/>
	<rect x="220" y="335.3" transform="matrix(0.7071 -0.7071 0.7071 0.7071 -185.0474 283.756)" class="st2" width="60" height="60"/>
	<g>
		<path class="st1" d="M265.2,218.7v73.1c0,6.5,0.8,10.7,2.3,12.5s4.5,2.9,8.8,3.1v3.6h-49.8v-3.6c4.1-0.1,7.1-1.3,9.1-3.6
			c1.3-1.5,2-5.5,2-12v-53.8c0-6.5-0.8-10.7-2.3-12.5s-4.5-2.8-8.7-3.1v-3.7L265.2,218.7L265.2,218.7z M251.5,174
			c4.3,0,7.9,1.5,10.8,4.5c3,3,4.5,6.6,4.5,10.8s-1.5,7.8-4.5,10.8c-3,3-6.6,4.5-10.8,4.5s-7.8-1.5-10.8-4.5c-3-3-4.5-6.6-4.5-10.8
			s1.5-7.8,4.5-10.8C243.7,175.5,247.3,174,251.5,174z"/>
	</g>
</g>
</svg>
