<?xml version="1.0" encoding="utf-8"?>
<!-- Generator: Adobe Illustrator 19.2.1, SVG Export Plug-In . SVG Version: 6.00 Build 0)  -->
<svg version="1.1" id="Layer_1" xmlns="http://www.w3.org/2000/svg" xmlns:xlink="http://www.w3.org/1999/xlink" x="0px" y="0px"
	 viewBox="0 0 391.8 147.6" style="enable-background:new 0 0 391.8 147.6;" xml:space="preserve">
<style type="text/css">
	.st0{fill:#FFFFFF;}
	.st1{fill:none;}
	.st2{enable-background:new    ;}
</style>
<title>Untitled-1</title>
<path class="st0" d="M0,147.1v-21.9h9.7c1,0,2,0.2,2.9,0.5c0.8,0.3,1.6,0.9,2.2,1.5c0.6,0.7,1.1,1.4,1.4,2.3
	c0.3,0.9,0.5,1.8,0.5,2.8c0,0.9-0.2,1.9-0.5,2.8c-0.3,0.8-0.8,1.6-1.4,2.2c-0.6,0.6-1.4,1.1-2.2,1.4c-0.9,0.4-1.9,0.5-2.9,0.5H4.6v8
	L0,147.1L0,147.1z M8.9,135.5c1,0.1,2.1-0.2,2.9-0.9c0.6-0.6,0.9-1.5,0.9-2.4c0-0.8-0.3-1.7-0.9-2.3c-0.8-0.7-1.8-1-2.8-0.9H4.6v6.4
	L8.9,135.5L8.9,135.5z"/>
<path class="st0" d="M25.5,147.6c-1.2,0-2.4-0.2-3.5-0.6c-2-0.8-3.6-2.4-4.3-4.5c-0.4-1.1-0.6-2.3-0.6-3.5s0.2-2.4,0.6-3.5
	c0.4-1,0.9-1.9,1.7-2.7c0.7-0.8,1.6-1.3,2.6-1.7c1.1-0.4,2.3-0.6,3.5-0.6s2.3,0.2,3.4,0.6c2,0.8,3.5,2.4,4.2,4.4
	c0.4,1.1,0.6,2.3,0.6,3.5s-0.2,2.4-0.6,3.5c-0.4,1-0.9,1.9-1.7,2.7c-0.7,0.8-1.6,1.3-2.6,1.7C27.9,147.3,26.7,147.6,25.5,147.6z
	 M25.5,144c2.6,0,3.9-1.7,3.9-5s-1.3-5-3.9-4.9c-2.6,0-3.9,1.6-3.9,4.9S22.9,143.9,25.5,144z"/>
<path class="st0" d="M35.3,129v-4h4.3v4H35.3z M35.3,147.1v-16.2h4.3v16.2H35.3L35.3,147.1z"/>
<path class="st0" d="M51.8,147.1v-9.8c0.1-0.9-0.1-1.8-0.6-2.5c-0.6-0.5-1.4-0.7-2.2-0.7c-2.2,0-3.3,1.2-3.3,3.7v9.3h-4.3v-16.2h4.1
	v2.4c0.5-0.9,1.1-1.6,2-2.1c1-0.5,2.1-0.8,3.2-0.7c0.7,0,1.5,0.1,2.2,0.3c0.6,0.2,1.2,0.5,1.7,1s0.9,1.1,1.1,1.7
	c0.3,0.7,0.4,1.5,0.4,2.3v11.3H51.8L51.8,147.1z"/>
<path class="st0" d="M67,136.4h4v4.6c0,0.8-0.1,1.7-0.4,2.5c-0.2,0.8-0.7,1.5-1.2,2.1c-0.6,0.6-1.2,1.1-2,1.4c-1,0.4-2,0.6-3,0.5
	c-1,0-2-0.2-3-0.5c-0.8-0.3-1.5-0.8-2.1-1.4c-0.5-0.6-0.9-1.3-1.2-2.1c-0.2-0.8-0.4-1.7-0.4-2.5v-14.5h4.2v4.4h9v3h-9v6.7
	c0,0.8,0.2,1.7,0.6,2.4c0.4,0.6,1.2,0.9,1.9,0.8c0.7,0.1,1.4-0.3,1.9-0.8c0.4-0.7,0.7-1.5,0.6-2.3L67,136.4L67,136.4z"/>
<path class="st0" d="M85.2,147.1v-5.6c0.1-0.8-0.2-1.6-0.7-2.3c-0.8-0.5-1.8-0.8-2.7-0.7h-4.9v8.6h-4.5v-21.9h11.2
	c0.9,0,1.9,0.2,2.8,0.5c0.8,0.3,1.5,0.7,2.1,1.3c0.6,0.6,1.1,1.2,1.4,2c0.3,0.8,0.5,1.7,0.5,2.5c0,1.1-0.3,2.2-0.8,3.1
	c-0.6,0.9-1.4,1.6-2.4,1.9c0.8,0.2,1.6,0.7,2.1,1.4c0.5,0.9,0.7,1.9,0.6,2.9v6.2L85.2,147.1L85.2,147.1z M76.9,129v5.8h5.7
	c0.9,0.1,1.9-0.2,2.6-0.8c0.5-0.6,0.8-1.3,0.8-2.1s-0.2-1.5-0.7-2.1c-0.7-0.6-1.6-0.9-2.5-0.8L76.9,129L76.9,129z"/>
<path class="st0" d="M104.1,137.9v9.2h-4.6v-21.9h15.6v3.8h-11v5h9.6v3.9L104.1,137.9L104.1,137.9z"/>
<path class="st0" d="M116.2,129v-4h4.3v4H116.2z M116.2,147.1v-16.2h4.3v16.2H116.2L116.2,147.1z"/>
<path class="st0" d="M132.7,147.1v-9.8c0.1-0.9-0.1-1.8-0.6-2.5c-0.6-0.5-1.4-0.7-2.1-0.7c-2.2,0-3.3,1.2-3.3,3.7v9.3h-4.3v-16.2
	h4.1v2.4c0.5-0.9,1.1-1.6,2-2.1c1-0.5,2.1-0.8,3.2-0.7c0.7,0,1.5,0.1,2.1,0.4c0.6,0.2,1.2,0.5,1.7,1s0.9,1.1,1.1,1.7
	c0.3,0.7,0.4,1.5,0.4,2.3v11.3L132.7,147.1L132.7,147.1z"/>
<path class="st0" d="M148.9,147.1c-0.1-0.5-0.2-1-0.3-1.5c-0.6,0.6-1.2,1.1-2,1.4c-0.9,0.4-1.9,0.5-2.9,0.5
	c-1.5,0.1-2.9-0.3-4.1-1.2c-0.9-0.8-1.3-2-1.3-3.2c0-1,0.1-1.9,0.6-2.8c0.4-0.7,0.9-1.2,1.6-1.6c0.7-0.4,1.5-0.7,2.4-0.9
	s1.9-0.4,3-0.5c0.8-0.1,1.5-0.3,2.2-0.6c0.7-0.5,0.8-1.5,0.2-2.1c-0.1-0.1-0.3-0.3-0.4-0.4c-0.6-0.3-1.3-0.5-2-0.5
	c-0.8-0.1-1.5,0.2-2.1,0.7c-0.4,0.5-0.7,1.1-0.8,1.8h-4c0-0.8,0.2-1.6,0.4-2.3s0.7-1.3,1.2-1.8c0.6-0.5,1.4-0.9,2.2-1.2
	c1.1-0.3,2.2-0.4,3.3-0.4s2.2,0.1,3.3,0.4c0.8,0.2,1.5,0.7,2.1,1.2c0.6,0.6,1,1.2,1.2,2c0.3,0.9,0.4,1.8,0.4,2.7v10.3L148.9,147.1
	L148.9,147.1z M148.6,139.1c-0.3,0.3-0.6,0.4-1,0.5c-0.6,0.2-1.2,0.3-1.8,0.4c-0.9,0.1-1.8,0.4-2.5,0.9c-0.5,0.4-0.7,1-0.7,1.6
	c0,1.2,0.7,1.8,2.1,1.8c0.5,0,1-0.1,1.5-0.3c0.9-0.4,1.6-1,2-1.9c0.2-0.4,0.3-0.9,0.3-1.4L148.6,139.1z"/>
<path class="st0" d="M165,147.1v-9.8c0.1-0.9-0.1-1.8-0.6-2.5c-0.6-0.5-1.4-0.7-2.1-0.7c-2.2,0-3.3,1.2-3.3,3.7v9.3h-4.3v-16.2h4.1
	v2.4c0.5-0.9,1.1-1.6,2-2.1c1-0.5,2.1-0.8,3.2-0.7c0.7,0,1.5,0.1,2.1,0.4c0.6,0.2,1.2,0.5,1.7,1s0.9,1.1,1.1,1.7
	c0.3,0.7,0.4,1.5,0.4,2.3v11.3L165,147.1L165,147.1z"/>
<path class="st0" d="M185.7,141.3c-0.1,0.9-0.4,1.8-0.8,2.6c-0.4,0.8-1,1.4-1.6,2c-0.7,0.6-1.4,1-2.3,1.3c-0.9,0.3-1.8,0.5-2.8,0.5
	s-2-0.2-3-0.5c-0.9-0.4-1.7-0.9-2.4-1.6c-0.7-0.8-1.2-1.7-1.5-2.7c-0.4-1.2-0.6-2.5-0.5-3.8c0-1.3,0.2-2.5,0.5-3.8
	c0.3-1,0.8-1.9,1.5-2.6c0.7-0.7,1.5-1.2,2.4-1.5c1-0.3,2.1-0.5,3.1-0.5s2,0.1,2.9,0.4c0.8,0.3,1.6,0.7,2.3,1.3
	c0.6,0.6,1.2,1.2,1.5,2c0.4,0.8,0.6,1.7,0.7,2.6h-4.3c-0.1-0.8-0.4-1.5-1-2s-1.3-0.7-2.1-0.7c-0.4,0-0.9,0.1-1.3,0.2
	c-0.4,0.2-0.7,0.4-1,0.8c-0.3,0.4-0.6,0.9-0.7,1.5c-0.2,0.7-0.3,1.5-0.3,2.2c-0.1,1.4,0.3,2.8,1,4c0.5,0.8,1.3,1.3,2.2,1.3
	c0.8,0,1.5-0.2,2.1-0.7s1-1.2,1-2L185.7,141.3L185.7,141.3z"/>
<path class="st0" d="M186.9,129v-4h4.3v4H186.9z M186.9,147.1v-16.2h4.3v16.2H186.9L186.9,147.1z"/>
<path class="st0" d="M203.2,147.1c-0.1-0.5-0.2-1-0.3-1.5c-0.6,0.6-1.2,1.1-2,1.4c-0.9,0.4-1.9,0.5-2.9,0.5
	c-1.5,0.1-2.9-0.3-4.1-1.2c-0.9-0.8-1.3-2-1.3-3.2c0-1,0.1-1.9,0.6-2.8c0.4-0.7,0.9-1.2,1.6-1.6c0.7-0.4,1.5-0.7,2.4-0.9
	s1.9-0.4,3-0.5c0.8-0.1,1.5-0.3,2.2-0.6c0.7-0.5,0.8-1.5,0.2-2.1c-0.1-0.1-0.3-0.3-0.4-0.4c-0.6-0.3-1.3-0.5-2-0.5
	c-0.8-0.1-1.5,0.2-2.1,0.7c-0.4,0.5-0.7,1.1-0.8,1.8h-4c0-0.8,0.2-1.6,0.4-2.3s0.7-1.3,1.2-1.8c0.6-0.5,1.4-0.9,2.1-1.2
	c1.1-0.3,2.2-0.4,3.3-0.4s2.2,0.1,3.2,0.4c0.8,0.2,1.5,0.7,2.1,1.2c0.5,0.6,1,1.2,1.2,2c0.3,0.9,0.4,1.8,0.4,2.7v10.3L203.2,147.1
	L203.2,147.1z M202.9,139.1c-0.3,0.3-0.6,0.4-1,0.5c-0.6,0.2-1.2,0.3-1.8,0.4c-0.9,0.1-1.8,0.4-2.5,0.9c-0.5,0.4-0.7,1-0.7,1.6
	c0,1.2,0.7,1.8,2.1,1.8c0.5,0,1-0.1,1.5-0.3c0.9-0.4,1.6-1,2-1.9c0.2-0.4,0.3-0.9,0.3-1.4L202.9,139.1z"/>
<path class="st0" d="M208.9,147.1V125h4.3v22.2L208.9,147.1L208.9,147.1z"/>
<rect class="st1" width="827" height="117"/>
<g class="st2">
	<path class="st0" d="M64.9,104.6l-5.6-18.4H26.4l-6.3,18.4H0.4l31.8-89h21.6l31.4,89H64.9z M42.7,35.6h-0.1L31.2,71h22.6L42.7,35.6
		z"/>
	<path class="st0" d="M89,104.6v-90h17.2v32.7C111,40.4,117.6,37,125.7,37c4.3,0,8.1,0.8,11.5,2.5c3.3,1.7,6.2,4,8.5,7
		c2.3,3,4.1,6.6,5.3,10.8c1.2,4.2,1.8,8.7,1.8,13.7c0,5.5-0.7,10.5-2.1,14.9c-1.4,4.4-3.4,8.1-5.9,11.1c-2.5,3-5.5,5.4-9,7
		c-3.5,1.6-7.3,2.4-11.5,2.4c-8.2,0-14.3-3.3-18.4-9.8l-0.1,8H89z M120.2,92.2c4.4,0,8-1.9,10.7-5.6c2.8-3.7,4.2-8.5,4.2-14.4
		c0-13.6-5-20.4-15-20.4c-9.7,0-14.6,7.1-14.6,21.4c0,5.6,1.4,10.2,4.2,13.7C112.5,90.4,116,92.2,120.2,92.2z"/>
	<path class="st0" d="M190.9,106.4c-5.4,0-10.1-0.9-14.3-2.5c-4.2-1.7-7.8-4.1-10.7-7.1c-2.9-3-5.1-6.7-6.6-11
		c-1.5-4.3-2.3-9-2.3-14.1c0-5.2,0.8-9.9,2.3-14.2c1.6-4.3,3.8-8,6.8-11c2.9-3,6.5-5.4,10.7-7c4.2-1.7,8.9-2.5,14.1-2.5
		c5.2,0,9.8,0.8,13.9,2.5c4.1,1.7,7.6,4,10.5,7c2.9,3,5.1,6.6,6.7,10.9c1.6,4.3,2.3,9.1,2.3,14.3c0,5.3-0.8,10-2.3,14.3
		c-1.6,4.2-3.8,7.9-6.7,10.9c-2.9,3-6.4,5.4-10.6,7C200.7,105.6,196,106.4,190.9,106.4z M190.9,91.8c10.6,0,15.9-6.7,15.9-20.1
		c0-13.3-5.3-20-15.9-20c-10.6,0-15.9,6.7-15.9,20C175,85.1,180.3,91.8,190.9,91.8z"/>
	<path class="st0" d="M273,104.6v-9.2c-4.5,7.3-11.3,11-20.5,11c-3.3,0-6.3-0.6-9-1.7c-2.7-1.2-5.1-2.8-7-5c-2-2.1-3.5-4.7-4.6-7.6
		c-1.1-2.9-1.7-6.3-1.7-9.9V38.7h17.4v40.7c0,8.2,3.7,12.3,11.1,12.3c4.5,0,7.8-1.4,10.1-4.2c2.3-2.8,3.4-6.4,3.4-10.8V38.7h17.3
		v65.9H273z"/>
	<path class="st0" d="M333.8,61.2H350V80c0,3.5-0.5,6.8-1.5,10c-1,3.2-2.6,6-4.8,8.4c-2.2,2.5-5,4.4-8.3,5.8
		c-3.4,1.4-7.3,2.1-12,2.1c-4.8,0-8.9-0.7-12.3-2.1c-3.4-1.4-6.2-3.3-8.4-5.8c-2.2-2.4-3.8-5.2-4.8-8.4c-1-3.2-1.5-6.6-1.5-10.2v-59
		h17.2v17.8H350V51h-36.4v27.1c0,4.2,0.8,7.4,2.3,9.7c1.6,2.3,4.1,3.4,7.7,3.4c3.5,0,6.1-1.1,7.7-3.3c1.7-2.2,2.5-5.4,2.5-9.5V61.2z
		"/>
</g>
</svg>
