<?xml version="1.0" encoding="utf-8"?>
<!-- Generator: Adobe Illustrator 19.2.1, SVG Export Plug-In . SVG Version: 6.00 Build 0)  -->
<svg version="1.1" id="Layer_1" xmlns="http://www.w3.org/2000/svg" xmlns:xlink="http://www.w3.org/1999/xlink" x="0px" y="0px"
	 viewBox="0 0 391.8 147.6" style="enable-background:new 0 0 391.8 147.6;" xml:space="preserve">
<style type="text/css">
	.st0{fill:#FFFFFF;}
</style>
<title>Untitled-1</title>
<path class="st0" d="M2,147.1v-21.9h9.7c1,0,2,0.2,2.9,0.5c0.8,0.3,1.6,0.9,2.2,1.5c0.6,0.7,1.1,1.4,1.4,2.3s0.5,1.8,0.5,2.8
	c0,0.9-0.2,1.9-0.5,2.8c-0.3,0.8-0.8,1.6-1.4,2.2c-0.6,0.6-1.4,1.1-2.2,1.4c-0.9,0.4-1.9,0.5-2.9,0.5H6.6v8L2,147.1L2,147.1z
	 M10.9,135.5c1,0.1,2.1-0.2,2.9-0.9c0.6-0.6,0.9-1.5,0.9-2.4c0-0.8-0.3-1.7-0.9-2.3c-0.8-0.7-1.8-1-2.8-0.9H6.6v6.4L10.9,135.5
	L10.9,135.5z"/>
<path class="st0" d="M27.5,147.6c-1.2,0-2.4-0.2-3.5-0.6c-2-0.8-3.6-2.4-4.3-4.5c-0.4-1.1-0.6-2.3-0.6-3.5s0.2-2.4,0.6-3.5
	c0.4-1,0.9-1.9,1.7-2.7c0.7-0.8,1.6-1.3,2.6-1.7c1.1-0.4,2.3-0.6,3.5-0.6s2.3,0.2,3.4,0.6c2,0.8,3.5,2.4,4.2,4.4
	c0.4,1.1,0.6,2.3,0.6,3.5s-0.2,2.4-0.6,3.5c-0.4,1-0.9,1.9-1.7,2.7c-0.7,0.8-1.6,1.3-2.6,1.7C29.9,147.3,28.7,147.6,27.5,147.6z
	 M27.5,144c2.6,0,3.9-1.7,3.9-5s-1.3-5-3.9-4.9c-2.6,0-3.9,1.6-3.9,4.9S24.9,143.9,27.5,144z"/>
<path class="st0" d="M37.3,129v-4h4.3v4H37.3z M37.3,147.1v-16.2h4.3v16.2H37.3L37.3,147.1z"/>
<path class="st0" d="M53.8,147.1v-9.8c0.1-0.9-0.1-1.8-0.6-2.5c-0.6-0.5-1.4-0.7-2.2-0.7c-2.2,0-3.3,1.2-3.3,3.7v9.3h-4.3v-16.2h4.1
	v2.4c0.5-0.9,1.1-1.6,2-2.1c1-0.5,2.1-0.8,3.2-0.7c0.7,0,1.5,0.1,2.2,0.3c0.6,0.2,1.2,0.5,1.7,1s0.9,1.1,1.1,1.7
	c0.3,0.7,0.4,1.5,0.4,2.3v11.3H53.8L53.8,147.1z"/>
<path class="st0" d="M69,136.4h4v4.6c0,0.8-0.1,1.7-0.4,2.5c-0.2,0.8-0.7,1.5-1.2,2.1c-0.6,0.6-1.2,1.1-2,1.4c-1,0.4-2,0.6-3,0.5
	c-1,0-2-0.2-3-0.5c-0.8-0.3-1.5-0.8-2.1-1.4c-0.5-0.6-0.9-1.3-1.2-2.1c-0.2-0.8-0.4-1.7-0.4-2.5v-14.5h4.2v4.4h9v3h-9v6.7
	c0,0.8,0.2,1.7,0.6,2.4c0.4,0.6,1.2,0.9,1.9,0.8c0.7,0.1,1.4-0.3,1.9-0.8c0.4-0.7,0.7-1.5,0.6-2.3L69,136.4L69,136.4z"/>
<path class="st0" d="M87.2,147.1v-5.6c0.1-0.8-0.2-1.6-0.7-2.3c-0.8-0.5-1.8-0.8-2.7-0.7h-4.9v8.6h-4.5v-21.9h11.2
	c0.9,0,1.9,0.2,2.8,0.5c0.8,0.3,1.5,0.7,2.1,1.3c0.6,0.6,1.1,1.2,1.4,2c0.3,0.8,0.5,1.7,0.5,2.5c0,1.1-0.3,2.2-0.8,3.1
	c-0.6,0.9-1.4,1.6-2.4,1.9c0.8,0.2,1.6,0.7,2.1,1.4c0.5,0.9,0.7,1.9,0.6,2.9v6.2L87.2,147.1L87.2,147.1z M78.9,129v5.8h5.7
	c0.9,0.1,1.9-0.2,2.6-0.8c0.5-0.6,0.8-1.3,0.8-2.1s-0.2-1.5-0.7-2.1c-0.7-0.6-1.6-0.9-2.5-0.8L78.9,129L78.9,129z"/>
<path class="st0" d="M106.1,137.9v9.2h-4.6v-21.9h15.6v3.8h-11v5h9.6v3.9L106.1,137.9L106.1,137.9z"/>
<path class="st0" d="M118.2,129v-4h4.3v4H118.2z M118.2,147.1v-16.2h4.3v16.2H118.2L118.2,147.1z"/>
<path class="st0" d="M134.7,147.1v-9.8c0.1-0.9-0.1-1.8-0.6-2.5c-0.6-0.5-1.4-0.7-2.1-0.7c-2.2,0-3.3,1.2-3.3,3.7v9.3h-4.3v-16.2
	h4.1v2.4c0.5-0.9,1.1-1.6,2-2.1c1-0.5,2.1-0.8,3.2-0.7c0.7,0,1.5,0.1,2.1,0.4c0.6,0.2,1.2,0.5,1.7,1s0.9,1.1,1.1,1.7
	c0.3,0.7,0.4,1.5,0.4,2.3v11.3L134.7,147.1L134.7,147.1z"/>
<path class="st0" d="M150.9,147.1c-0.1-0.5-0.2-1-0.3-1.5c-0.6,0.6-1.2,1.1-2,1.4c-0.9,0.4-1.9,0.5-2.9,0.5
	c-1.5,0.1-2.9-0.3-4.1-1.2c-0.9-0.8-1.3-2-1.3-3.2c0-1,0.1-1.9,0.6-2.8c0.4-0.7,0.9-1.2,1.6-1.6c0.7-0.4,1.5-0.7,2.4-0.9
	s1.9-0.4,3-0.5c0.8-0.1,1.5-0.3,2.2-0.6c0.7-0.5,0.8-1.5,0.2-2.1c-0.1-0.1-0.3-0.3-0.4-0.4c-0.6-0.3-1.3-0.5-2-0.5
	c-0.8-0.1-1.5,0.2-2.1,0.7c-0.4,0.5-0.7,1.1-0.8,1.8h-4c0-0.8,0.2-1.6,0.4-2.3s0.7-1.3,1.2-1.8c0.6-0.5,1.4-0.9,2.2-1.2
	c1.1-0.3,2.2-0.4,3.3-0.4s2.2,0.1,3.3,0.4c0.8,0.2,1.5,0.7,2.1,1.2c0.6,0.6,1,1.2,1.2,2c0.3,0.9,0.4,1.8,0.4,2.7v10.3L150.9,147.1
	L150.9,147.1z M150.6,139.1c-0.3,0.3-0.6,0.4-1,0.5c-0.6,0.2-1.2,0.3-1.8,0.4c-0.9,0.1-1.8,0.4-2.5,0.9c-0.5,0.4-0.7,1-0.7,1.6
	c0,1.2,0.7,1.8,2.1,1.8c0.5,0,1-0.1,1.5-0.3c0.9-0.4,1.6-1,2-1.9c0.2-0.4,0.3-0.9,0.3-1.4L150.6,139.1z"/>
<path class="st0" d="M167,147.1v-9.8c0.1-0.9-0.1-1.8-0.6-2.5c-0.6-0.5-1.4-0.7-2.1-0.7c-2.2,0-3.3,1.2-3.3,3.7v9.3h-4.3v-16.2h4.1
	v2.4c0.5-0.9,1.1-1.6,2-2.1c1-0.5,2.1-0.8,3.2-0.7c0.7,0,1.5,0.1,2.1,0.4c0.6,0.2,1.2,0.5,1.7,1s0.9,1.1,1.1,1.7
	c0.3,0.7,0.4,1.5,0.4,2.3v11.3L167,147.1L167,147.1z"/>
<path class="st0" d="M187.7,141.3c-0.1,0.9-0.4,1.8-0.8,2.6c-0.4,0.8-1,1.4-1.6,2c-0.7,0.6-1.4,1-2.3,1.3c-0.9,0.3-1.8,0.5-2.8,0.5
	s-2-0.2-3-0.5c-0.9-0.4-1.7-0.9-2.4-1.6c-0.7-0.8-1.2-1.7-1.5-2.7c-0.4-1.2-0.6-2.5-0.5-3.8c0-1.3,0.2-2.5,0.5-3.8
	c0.3-1,0.8-1.9,1.5-2.6c0.7-0.7,1.5-1.2,2.4-1.5c1-0.3,2.1-0.5,3.1-0.5s2,0.1,2.9,0.4c0.8,0.3,1.6,0.7,2.3,1.3
	c0.6,0.6,1.2,1.2,1.5,2c0.4,0.8,0.6,1.7,0.7,2.6h-4.3c-0.1-0.8-0.4-1.5-1-2s-1.3-0.7-2.1-0.7c-0.4,0-0.9,0.1-1.3,0.2
	c-0.4,0.2-0.7,0.4-1,0.8c-0.3,0.4-0.6,0.9-0.7,1.5c-0.2,0.7-0.3,1.5-0.3,2.2c-0.1,1.4,0.3,2.8,1,4c0.5,0.8,1.3,1.3,2.2,1.3
	c0.8,0,1.5-0.2,2.1-0.7s1-1.2,1-2L187.7,141.3L187.7,141.3z"/>
<path class="st0" d="M188.9,129v-4h4.3v4H188.9z M188.9,147.1v-16.2h4.3v16.2H188.9L188.9,147.1z"/>
<path class="st0" d="M205.2,147.1c-0.1-0.5-0.2-1-0.3-1.5c-0.6,0.6-1.2,1.1-2,1.4c-0.9,0.4-1.9,0.5-2.9,0.5
	c-1.5,0.1-2.9-0.3-4.1-1.2c-0.9-0.8-1.3-2-1.3-3.2c0-1,0.1-1.9,0.6-2.8c0.4-0.7,0.9-1.2,1.6-1.6c0.7-0.4,1.5-0.7,2.4-0.9
	s1.9-0.4,3-0.5c0.8-0.1,1.5-0.3,2.2-0.6c0.7-0.5,0.8-1.5,0.2-2.1c-0.1-0.1-0.3-0.3-0.4-0.4c-0.6-0.3-1.3-0.5-2-0.5
	c-0.8-0.1-1.5,0.2-2.1,0.7c-0.4,0.5-0.7,1.1-0.8,1.8h-4c0-0.8,0.2-1.6,0.4-2.3s0.7-1.3,1.2-1.8c0.6-0.5,1.4-0.9,2.1-1.2
	c1.1-0.3,2.2-0.4,3.3-0.4s2.2,0.1,3.2,0.4c0.8,0.2,1.5,0.7,2.1,1.2c0.5,0.6,1,1.2,1.2,2c0.3,0.9,0.4,1.8,0.4,2.7v10.3L205.2,147.1
	L205.2,147.1z M204.9,139.1c-0.3,0.3-0.6,0.4-1,0.5c-0.6,0.2-1.2,0.3-1.8,0.4c-0.9,0.1-1.8,0.4-2.5,0.9c-0.5,0.4-0.7,1-0.7,1.6
	c0,1.2,0.7,1.8,2.1,1.8c0.5,0,1-0.1,1.5-0.3c0.9-0.4,1.6-1,2-1.9c0.2-0.4,0.3-0.9,0.3-1.4L204.9,139.1z"/>
<path class="st0" d="M210.9,147.1V125h4.3v22.2L210.9,147.1L210.9,147.1z"/>
<g>
	<path class="st0" d="M67.7,76.9c-0.8,4.3-2.1,8.2-4,11.6C62,92,59.7,95,57,97.5c-2.8,2.5-5.9,4.4-9.5,5.8c-3.6,1.4-7.6,2-12,2
		c-4.9,0-9.5-0.8-13.7-2.5c-4.3-1.7-7.9-4.1-11-7.5C7.6,92,5.2,88,3.4,83.1c-1.8-4.9-2.7-10.5-2.7-17c0-6.3,0.8-12,2.4-17.1
		c1.6-5.1,3.9-9.4,6.9-12.9c3-3.5,6.7-6.2,11-8.1c4.3-1.9,9.2-2.8,14.5-2.8c4.7,0,8.9,0.7,12.7,2.1c3.8,1.4,7.1,3.3,9.8,5.8
		c2.7,2.4,4.9,5.3,6.6,8.6c1.6,3.3,2.6,6.9,3,10.6H52c-1.1-4.3-3.1-7.6-6.1-10c-3-2.4-6.4-3.6-10.2-3.6c-6.6,0-11.4,2.4-14.5,7.1
		c-3.1,4.7-4.6,11.2-4.6,19.4c0,8.4,1.5,14.9,4.6,19.5c3.1,4.6,7.6,6.9,13.7,6.9c4.7,0,8.4-1.3,11.2-3.8C49,85.3,51,81.7,52,76.9
		H67.7z"/>
	<path class="st0" d="M98,104.2c-4.5,0-8.5-0.7-12.1-2.1c-3.5-1.4-6.5-3.4-9-6c-2.4-2.6-4.3-5.6-5.6-9.3c-1.3-3.6-1.9-7.6-1.9-11.9
		c0-4.4,0.7-8.4,2-12c1.3-3.6,3.2-6.7,5.7-9.3c2.5-2.6,5.5-4.5,9-5.9c3.5-1.4,7.5-2.1,11.9-2.1c4.4,0,8.3,0.7,11.7,2.1
		c3.5,1.4,6.4,3.4,8.9,5.9c2.4,2.5,4.3,5.6,5.6,9.2c1.3,3.6,2,7.6,2,12.1c0,4.4-0.7,8.5-2,12c-1.3,3.6-3.2,6.6-5.6,9.2
		c-2.4,2.6-5.4,4.5-8.9,5.9C106.2,103.5,102.3,104.2,98,104.2z M98,91.9c9,0,13.4-5.6,13.4-16.9c0-11.2-4.5-16.8-13.4-16.8
		c-9,0-13.4,5.6-13.4,16.8C84.6,86.2,89.1,91.9,98,91.9z"/>
	<path class="st0" d="M166.6,102.7V69c0-4.3-0.7-7.2-2.1-8.7c-1.4-1.5-3.9-2.3-7.3-2.3c-7.6,0-11.4,4.3-11.4,12.8v31.9H131V47.1h14
		v8.1c1.7-3.2,4-5.6,6.9-7.2c2.9-1.6,6.6-2.4,11.1-2.4c2.6,0,5.1,0.4,7.3,1.2c2.3,0.8,4.2,2,5.8,3.6c1.6,1.6,2.9,3.5,3.8,5.8
		c0.9,2.3,1.4,5,1.4,8v38.5H166.6z"/>
	<path class="st0" d="M218.8,66.1h13.7v15.8c0,2.9-0.4,5.7-1.3,8.4c-0.9,2.7-2.2,5-4.1,7.1c-1.8,2.1-4.2,3.7-7,4.9
		c-2.8,1.2-6.2,1.8-10.1,1.8c-4.1,0-7.5-0.6-10.4-1.8c-2.9-1.2-5.2-2.8-7.1-4.9c-1.8-2-3.2-4.4-4-7.1c-0.8-2.7-1.2-5.6-1.2-8.6V32.1
		h14.5v15h30.7v10.4h-30.7v22.8c0,3.5,0.7,6.3,2,8.2c1.3,1.9,3.5,2.9,6.5,2.9c2.9,0,5.1-0.9,6.5-2.8c1.4-1.9,2.1-4.6,2.1-8V66.1z"/>
	<path class="st0" d="M272.5,102.7c-0.5-1.4-0.8-3.1-0.9-5c-1.7,2-4,3.5-6.9,4.7c-2.9,1.2-6.2,1.8-9.9,1.8c-6.4,0-11.1-1.4-14.1-4.2
		c-3-2.8-4.5-6.5-4.5-11c0-4,0.6-7.2,1.9-9.5c1.3-2.4,3.1-4.2,5.3-5.6c2.3-1.4,5-2.4,8.1-3c3.1-0.6,6.5-1.2,10.2-1.8
		c3.7-0.5,6.2-1.2,7.5-2.1c1.3-0.9,1.9-2.3,1.9-4.2c0-1.8-0.8-3.2-2.5-4.2c-1.7-1-4-1.5-6.8-1.5c-3.4,0-5.8,0.8-7.3,2.3
		c-1.5,1.5-2.4,3.5-2.8,6h-13.7c0.1-2.9,0.5-5.5,1.4-7.9c0.9-2.4,2.3-4.5,4.2-6.2c1.9-1.7,4.4-3.1,7.5-4c3.1-0.9,6.9-1.4,11.3-1.4
		c4.4,0,8.1,0.5,11.1,1.5c3.1,1,5.5,2.4,7.3,4.2c1.8,1.8,3.2,4.1,4,6.9c0.8,2.8,1.2,5.9,1.2,9.3v35.1H272.5z M271.5,75.5
		c-0.8,0.8-1.8,1.4-3.3,1.8c-1.4,0.5-3.5,0.9-6.2,1.5c-4.2,0.8-7.1,1.9-8.7,3.2c-1.6,1.3-2.4,3.1-2.4,5.5c0,4.1,2.4,6.2,7.1,6.2
		c1.9,0,3.6-0.3,5.3-1c1.6-0.6,3-1.5,4.2-2.6c1.2-1.1,2.1-2.4,2.8-3.8c0.7-1.5,1.1-3,1.1-4.7L271.5,75.5z"/>
	<path class="st0" d="M342.1,82.6c-0.4,3.2-1.3,6.2-2.8,8.8c-1.5,2.6-3.3,4.9-5.6,6.8c-2.3,1.9-4.8,3.4-7.7,4.4
		c-2.9,1.1-6,1.6-9.4,1.6c-3.8,0-7.2-0.6-10.3-1.9c-3.1-1.2-5.8-3.1-8.1-5.6c-2.3-2.5-4-5.6-5.3-9.4c-1.2-3.7-1.9-8.1-1.9-13
		c0-5,0.6-9.3,1.9-12.9c1.2-3.6,3-6.6,5.3-8.9c2.3-2.3,5-4,8.2-5.1c3.2-1.1,6.8-1.7,10.7-1.7c3.6,0,6.9,0.5,9.9,1.5
		c3,1,5.6,2.4,7.8,4.3c2.2,1.9,4,4.1,5.3,6.8c1.3,2.6,2,5.6,2.3,8.8h-14.8c-0.4-2.9-1.5-5.1-3.4-6.7c-1.9-1.6-4.3-2.4-7.1-2.4
		c-1.6,0-3,0.3-4.4,0.8c-1.4,0.5-2.5,1.4-3.6,2.7c-1,1.2-1.8,2.9-2.4,5c-0.6,2.1-0.9,4.6-0.9,7.6c0,6.1,1.1,10.6,3.3,13.6
		c2.2,2.9,4.7,4.4,7.6,4.4c2.9,0,5.3-0.8,7.3-2.4c2-1.6,3.2-3.9,3.5-6.9H342.1z"/>
	<path class="st0" d="M377.4,66.1H391v15.8c0,2.9-0.4,5.7-1.3,8.4c-0.9,2.7-2.2,5-4.1,7.1c-1.8,2.1-4.2,3.7-7,4.9
		c-2.8,1.2-6.2,1.8-10.1,1.8c-4.1,0-7.5-0.6-10.4-1.8c-2.9-1.2-5.2-2.8-7.1-4.9c-1.8-2-3.2-4.4-4-7.1c-0.8-2.7-1.2-5.6-1.2-8.6V32.1
		h14.5v15H391v10.4h-30.7v22.8c0,3.5,0.7,6.3,2,8.2c1.3,1.9,3.5,2.9,6.5,2.9c2.9,0,5.1-0.9,6.5-2.8c1.4-1.9,2.1-4.6,2.1-8V66.1z"/>
</g>
</svg>
