<?xml version="1.0" encoding="utf-8"?>
<!-- Generator: Adobe Illustrator 19.2.1, SVG Export Plug-In . SVG Version: 6.00 Build 0)  -->
<svg version="1.1" id="Layer_1" xmlns="http://www.w3.org/2000/svg" xmlns:xlink="http://www.w3.org/1999/xlink" x="0px" y="0px"
	 viewBox="0 0 500 500" style="enable-background:new 0 0 500 500;" xml:space="preserve">
<style type="text/css">
	.st0{fill:#FFFFFF;}
	.st1{fill:#156A9E;}
	.st2{fill:#1A84D5;}
</style>
<rect x="233.6" y="363.5" class="st0" width="39.9" height="77.8"/>
<rect x="74.2" y="72.2" transform="matrix(0.7071 -0.7071 0.7071 0.7071 -102.553 250.4104)" class="st1" width="353.6" height="353.6"/>
<polygon class="st2" points="251,-1 251,499 501,249 "/>
<circle class="st0" cx="248.5" cy="251.7" r="135.5"/>
<g>
	<circle class="st2" cx="199.3" cy="216.6" r="16.1"/>
	<circle class="st2" cx="297.7" cy="216.6" r="16.1"/>
</g>
<g>
	<g>
		<path class="st2" d="M179.9,293.7c12.2,13.4,29.2,23.3,46.8,27.5c25.1,6.1,52.1,1,73.5-13.4c6.1-4.1,11.9-8.7,16.8-14.1
			c3.9-4.4,4.3-11,0-15.3c-4-4-11.3-4.4-15.3,0c-1.1,1.2-2.4,2.5-3.7,3.7c-1,0.9-2,1.8-3,2.8c-0.6,0.5-1.2,1-1.8,1.5
			c-0.3,0.2-1.1,1-0.1,0.1c1.3-1-0.5,0.4-0.8,0.6c-3.3,2.4-6.8,4.6-10.5,6.6c-5.1,2.8-6.8,3.6-12.5,5.3c-10.9,3.4-22.3,4.4-33.3,2.3
			c-10.9-2.1-18.2-5.1-27.3-11.2c-1-0.7-2-1.3-2.9-2c-0.5-0.4-0.9-0.7-1.3-1c-1.7-1.1,0.9,0.8,0,0c-1.4-1.1-2.9-2.4-4.3-3.6
			c-1.7-1.6-3.5-3.2-5.1-5c-3.9-4.4-11.2-4-15.3,0C175.6,282.7,176,289.4,179.9,293.7L179.9,293.7z"/>
	</g>
</g>
</svg>
