<svg id="Layer_1" data-name="Layer 1" xmlns="http://www.w3.org/2000/svg" viewBox="0 0 56.33 40.96"><defs><style>.cls-1{fill:#edd15d;}.cls-2{fill:#efd978;}.cls-3{fill:#fff;opacity:0.26;}.cls-4{fill:#2f82c4;}.cls-5{fill:#61be73;}.cls-6{fill:#4bb562;}</style></defs><title>growthService</title><path class="cls-1" d="M31,67.14V69a49.3,49.3,0,0,0,14.89,0V67.14H31Z" transform="translate(-27.75 -29.52)"/><ellipse class="cls-2" cx="10.74" cy="37.62" rx="7.44" ry="0.96"/><path class="cls-1" d="M30.4,65.67v1.86a49.3,49.3,0,0,0,14.89,0V65.67H30.4Z" transform="translate(-27.75 -29.52)"/><ellipse class="cls-2" cx="10.09" cy="36.15" rx="7.44" ry="0.96"/><path class="cls-1" d="M31,64.21v1.86a49.3,49.3,0,0,0,14.89,0V64.21H31Z" transform="translate(-27.75 -29.52)"/><ellipse class="cls-2" cx="10.74" cy="34.69" rx="7.44" ry="0.96"/><path class="cls-1" d="M31.69,62.74V64.6a49.3,49.3,0,0,0,14.89,0V62.74H31.69Z" transform="translate(-27.75 -29.52)"/><ellipse class="cls-2" cx="11.38" cy="33.22" rx="7.44" ry="0.96"/><path class="cls-1" d="M31,61.27v1.86a49.3,49.3,0,0,0,14.89,0V61.27H31Z" transform="translate(-27.75 -29.52)"/><ellipse class="cls-2" cx="10.74" cy="31.75" rx="7.44" ry="0.96"/><path class="cls-1" d="M31,59.81v1.86a49.3,49.3,0,0,0,14.89,0V59.81H31Z" transform="translate(-27.75 -29.52)"/><ellipse class="cls-2" cx="10.74" cy="30.29" rx="7.44" ry="0.96"/><path class="cls-1" d="M30.4,58.34V60.2a49.3,49.3,0,0,0,14.89,0V58.34H30.4Z" transform="translate(-27.75 -29.52)"/><ellipse class="cls-2" cx="10.09" cy="28.82" rx="7.44" ry="0.96"/><path class="cls-1" d="M31,56.87v1.86a49.3,49.3,0,0,0,14.89,0V56.87H31Z" transform="translate(-27.75 -29.52)"/><ellipse class="cls-2" cx="10.74" cy="27.35" rx="7.44" ry="0.96"/><path class="cls-1" d="M57,66.88v1.51a40,40,0,0,0,12.07,0V66.88H57Z" transform="translate(-27.75 -29.52)"/><ellipse class="cls-2" cx="35.3" cy="37.36" rx="6.03" ry="0.78"/><path class="cls-1" d="M56.49,65.69V67.2a40,40,0,0,0,12.07,0V65.69H56.49Z" transform="translate(-27.75 -29.52)"/><ellipse class="cls-2" cx="34.77" cy="36.17" rx="6.03" ry="0.78"/><path class="cls-1" d="M57,64.5V66a40,40,0,0,0,12.07,0V64.5H57Z" transform="translate(-27.75 -29.52)"/><ellipse class="cls-2" cx="35.3" cy="34.98" rx="6.03" ry="0.78"/><path class="cls-1" d="M57.54,63.31v1.51a40,40,0,0,0,12.07,0V63.31H57.54Z" transform="translate(-27.75 -29.52)"/><ellipse class="cls-2" cx="35.82" cy="33.79" rx="6.03" ry="0.78"/><path class="cls-1" d="M57,62.12v1.51a40,40,0,0,0,12.07,0V62.12H57Z" transform="translate(-27.75 -29.52)"/><ellipse class="cls-2" cx="35.3" cy="32.6" rx="6.03" ry="0.78"/><path class="cls-1" d="M57,60.93v1.51a40,40,0,0,0,12.07,0V60.93H57Z" transform="translate(-27.75 -29.52)"/><ellipse class="cls-2" cx="35.3" cy="31.41" rx="6.03" ry="0.78"/><path class="cls-1" d="M56.49,59.74v1.51a40,40,0,0,0,12.07,0V59.74H56.49Z" transform="translate(-27.75 -29.52)"/><ellipse class="cls-2" cx="34.77" cy="30.22" rx="6.03" ry="0.78"/><path class="cls-1" d="M57,58.55v1.51a40,40,0,0,0,12.07,0V58.55H57Z" transform="translate(-27.75 -29.52)"/><ellipse class="cls-2" cx="35.3" cy="29.03" rx="6.03" ry="0.78"/><rect class="cls-3" y="24.23" width="43.67" height="16.73"/><rect class="cls-4" x="53.58" y="1.23" width="2.75" height="39.73"/><path class="cls-1" d="M42.84,67.59v2.21a58.68,58.68,0,0,0,17.72,0V67.59H42.84Z" transform="translate(-27.75 -29.52)"/><ellipse class="cls-2" cx="23.94" cy="38.07" rx="8.86" ry="1.14"/><path class="cls-1" d="M42.07,65.85v2.21a58.68,58.68,0,0,0,17.72,0V65.85H42.07Z" transform="translate(-27.75 -29.52)"/><ellipse class="cls-2" cx="23.17" cy="36.33" rx="8.86" ry="1.14"/><path class="cls-1" d="M42.84,64.1v2.21a58.68,58.68,0,0,0,17.72,0V64.1H42.84Z" transform="translate(-27.75 -29.52)"/><ellipse class="cls-2" cx="23.94" cy="34.58" rx="8.86" ry="1.14"/><path class="cls-1" d="M43.6,62.35v2.21a58.68,58.68,0,0,0,17.72,0V62.35H43.6Z" transform="translate(-27.75 -29.52)"/><ellipse class="cls-2" cx="24.71" cy="32.83" rx="8.86" ry="1.14"/><path class="cls-1" d="M42.84,60.61v2.21a58.68,58.68,0,0,0,17.72,0V60.61H42.84Z" transform="translate(-27.75 -29.52)"/><ellipse class="cls-2" cx="23.94" cy="31.09" rx="8.86" ry="1.14"/><path class="cls-1" d="M42.84,58.86v2.21a58.68,58.68,0,0,0,17.72,0V58.86H42.84Z" transform="translate(-27.75 -29.52)"/><ellipse class="cls-2" cx="23.94" cy="29.34" rx="8.86" ry="1.14"/><path class="cls-1" d="M42.07,57.12v2.21a58.68,58.68,0,0,0,17.72,0V57.12H42.07Z" transform="translate(-27.75 -29.52)"/><ellipse class="cls-2" cx="23.17" cy="27.6" rx="8.86" ry="1.14"/><path class="cls-1" d="M42.84,55.37v2.21a58.7,58.7,0,0,0,8.46.67,58.7,58.7,0,0,0,9.26-.67V55.37H42.84Z" transform="translate(-27.75 -29.52)"/><ellipse class="cls-2" cx="23.94" cy="25.85" rx="8.86" ry="1.14"/><path class="cls-5" d="M50,55C51.61,53,53.52,50.1,53,47c-0.54-3-2.76-3.55-3.95-6.8-0.77-2.1-1-5.43,1.92-10.66C48.84,34,49.1,37.09,49.68,39c1.11,3.7,3.41,4.43,4.2,8a11.86,11.86,0,0,1-1.34,7.89Z" transform="translate(-27.75 -29.52)"/><path class="cls-5" d="M56.36,36.23c-2.89-.28-5.3,1.06-5.91,3a4,4,0,0,0,.2,2.73,3.64,3.64,0,0,0,2.41.29C55,41.74,56.47,39.32,56.36,36.23Z" transform="translate(-27.75 -29.52)"/><path class="cls-6" d="M56.36,36.23c0.18,3.14-1.3,5.6-3.22,6.07a3.59,3.59,0,0,1-2.49-.37Z" transform="translate(-27.75 -29.52)"/><path class="cls-5" d="M57.71,46a2.91,2.91,0,0,0-3.53.47,2.17,2.17,0,0,0-.38,1.43,2,2,0,0,0,1.17.57C56,48.51,57.22,47.54,57.71,46Z" transform="translate(-27.75 -29.52)"/><path class="cls-6" d="M57.71,46c-0.46,1.63-1.66,2.62-2.72,2.52a1.94,1.94,0,0,1-1.2-.63Z" transform="translate(-27.75 -29.52)"/><path class="cls-5" d="M44.47,35.63a2.91,2.91,0,0,0,3,1.86,2.17,2.17,0,0,0,1.19-.87,2,2,0,0,0-.55-1.18C47.37,34.69,45.85,34.71,44.47,35.63Z" transform="translate(-27.75 -29.52)"/><path class="cls-6" d="M44.47,35.63c1.38-1,2.93-1,3.69-.26a1.94,1.94,0,0,1,.54,1.24Z" transform="translate(-27.75 -29.52)"/><path class="cls-5" d="M47.49,31.27a1.88,1.88,0,0,0,.93,2.12,1.41,1.41,0,0,0,1,0,1.27,1.27,0,0,0,.15-0.83A2,2,0,0,0,47.49,31.27Z" transform="translate(-27.75 -29.52)"/><path class="cls-6" d="M47.49,31.27a1.94,1.94,0,0,1,2.06,1.24,1.25,1.25,0,0,1-.18.86Z" transform="translate(-27.75 -29.52)"/><path class="cls-5" d="M46.59,50.51c2.89,0.28,5.3-1.06,5.91-3a4,4,0,0,0-.2-2.73,3.64,3.64,0,0,0-2.41-.29C48,45,46.48,47.43,46.59,50.51Z" transform="translate(-27.75 -29.52)"/><path class="cls-6" d="M46.59,50.51c-0.18-3.14,1.3-5.6,3.22-6.07a3.59,3.59,0,0,1,2.49.37Z" transform="translate(-27.75 -29.52)"/></svg>