<svg id="Layer_1" data-name="Layer 1" xmlns="http://www.w3.org/2000/svg" viewBox="0 0 382.7 146.31"><defs><style>.cls-1{fill:#fff;}.cls-2{isolation:isolate;}</style></defs><title>hometitle</title><path class="cls-1" d="M0.9,145.8V123.9h9.7a9.29,9.29,0,0,1,2.9.5,6.62,6.62,0,0,1,2.2,1.5,6.78,6.78,0,0,1,1.4,2.3,8.68,8.68,0,0,1,.5,2.8,9.18,9.18,0,0,1-.5,2.8,6,6,0,0,1-3.6,3.6,7.1,7.1,0,0,1-2.9.5H5.5v8l-4.6-.1h0Zm8.9-11.7a3.89,3.89,0,0,0,2.9-.9,3.41,3.41,0,0,0,.9-2.4,3.34,3.34,0,0,0-.9-2.3,3.76,3.76,0,0,0-2.9-.9H5.5V134l4.3,0.1h0Z"/><path class="cls-1" d="M26.5,146.2a10.3,10.3,0,0,1-3.5-.6,7.47,7.47,0,0,1-4.3-4.4,10.51,10.51,0,0,1,0-7,7.71,7.71,0,0,1,1.7-2.7,6.77,6.77,0,0,1,2.6-1.8,10.51,10.51,0,0,1,7,0,7.3,7.3,0,0,1,4.2,4.4,10.51,10.51,0,0,1,0,7,9.19,9.19,0,0,1-1.6,2.7,6.77,6.77,0,0,1-2.6,1.8A11.2,11.2,0,0,1,26.5,146.2Zm0-3.6c2.6,0,3.9-1.7,3.9-5s-1.3-5-3.9-5-3.9,1.6-3.9,4.9,1.2,5,3.9,5.1h0Z"/><path class="cls-1" d="M36.2,127.6v-4h4.3v4H36.2Zm0,18.2V129.5h4.3v16.2l-4.3.1h0Z"/><path class="cls-1" d="M52.7,145.8V136a3.61,3.61,0,0,0-.6-2.5,3.32,3.32,0,0,0-2.1-.7c-2.2,0-3.3,1.2-3.3,3.7v9.3H42.4V129.6h4.1V132a5.06,5.06,0,0,1,2-2.1,6,6,0,0,1,3.2-.7,8.33,8.33,0,0,1,2.2.3,4.25,4.25,0,0,1,1.7,1,4.52,4.52,0,0,1,1.1,1.7,5.87,5.87,0,0,1,.4,2.3v11.3H52.7Z"/><path class="cls-1" d="M67.9,135.1h4v4.6a7.27,7.27,0,0,1-.4,2.5,5.49,5.49,0,0,1-1.2,2.1,5.58,5.58,0,0,1-2,1.4,6.34,6.34,0,0,1-3,.5,10.47,10.47,0,0,1-3-.5,6,6,0,0,1-2.1-1.4,7.19,7.19,0,0,1-1.2-2.1,10.86,10.86,0,0,1-.4-2.5V125.2h4.2v4.4h9v3h-9v6.7a5,5,0,0,0,.6,2.4,2,2,0,0,0,1.9.8,2.36,2.36,0,0,0,1.9-.8,3.79,3.79,0,0,0,.6-2.3l0.1-4.3h0Z"/><path class="cls-1" d="M86.1,145.8v-5.6a3.31,3.31,0,0,0-.7-2.3,4.39,4.39,0,0,0-2.7-.7H77.8v8.6H73.3V123.9H84.5a9.18,9.18,0,0,1,2.8.5,5.71,5.71,0,0,1,2.1,1.3,5.58,5.58,0,0,1,1.4,2,7.42,7.42,0,0,1,.5,2.5,6.5,6.5,0,0,1-.8,3.1,4.48,4.48,0,0,1-2.4,1.9,3.75,3.75,0,0,1,2.1,1.4,4.92,4.92,0,0,1,.6,2.9v6.2l-4.7.1h0Zm-8.3-18.2v5.8h5.7a3.53,3.53,0,0,0,2.6-.8,3.31,3.31,0,0,0,0-4.2,3.07,3.07,0,0,0-2.4-.8H77.8Z"/><path class="cls-1" d="M105,136.5v9.2h-4.6V123.8H116v3.8H105v5h9.6v3.9H105Z"/><path class="cls-1" d="M117.1,127.6v-4h4.3v4h-4.3Zm0,18.2V129.5h4.3v16.2l-4.3.1h0Z"/><path class="cls-1" d="M133.6,145.8V136a3.61,3.61,0,0,0-.6-2.5,3.32,3.32,0,0,0-2.1-.7c-2.2,0-3.3,1.2-3.3,3.7v9.3h-4.4V129.6h4.1V132a5.06,5.06,0,0,1,2-2.1,6,6,0,0,1,3.2-.7,4.92,4.92,0,0,1,2.1.4,4.25,4.25,0,0,1,1.7,1,4.52,4.52,0,0,1,1.1,1.7,5.87,5.87,0,0,1,.4,2.3v11.3l-4.2-.1h0Z"/><path class="cls-1" d="M149.8,145.8c-0.1-.5-0.2-1-0.3-1.4a5.58,5.58,0,0,1-2,1.4,7.1,7.1,0,0,1-2.9.5,6,6,0,0,1-4.1-1.2,4.22,4.22,0,0,1-1.3-3.2,5.46,5.46,0,0,1,.6-2.8,4.1,4.1,0,0,1,1.6-1.6,8.54,8.54,0,0,1,2.4-.9,23.42,23.42,0,0,1,3-.5,7.94,7.94,0,0,0,2.2-.6,1.38,1.38,0,0,0,.2-2.1l-0.4-.4a3.44,3.44,0,0,0-2-.4,2.7,2.7,0,0,0-2.1.7,3.7,3.7,0,0,0-.8,1.8h-4a8.52,8.52,0,0,1,.4-2.3,4.39,4.39,0,0,1,1.2-1.8,7.76,7.76,0,0,1,2.2-1.2,13.81,13.81,0,0,1,6.6,0,5.49,5.49,0,0,1,2.1,1.2,4.15,4.15,0,0,1,1.2,2,8.42,8.42,0,0,1,.4,2.7V146l-4.2-.2h0Zm-0.3-8a1.91,1.91,0,0,1-1,.5,11.63,11.63,0,0,1-1.8.4,5.38,5.38,0,0,0-2.5.9,2,2,0,0,0-.7,1.6q0,1.8,2.1,1.8a4,4,0,0,0,1.5-.3,3.72,3.72,0,0,0,2-1.9,3.19,3.19,0,0,0,.3-1.4Z"/><path class="cls-1" d="M165.9,145.8V136a3.61,3.61,0,0,0-.6-2.5,3.32,3.32,0,0,0-2.1-.7c-2.2,0-3.3,1.2-3.3,3.7v9.3h-4.3V129.6h4.1V132a5.06,5.06,0,0,1,2-2.1,6,6,0,0,1,3.2-.7,4.92,4.92,0,0,1,2.1.4,4.25,4.25,0,0,1,1.7,1,4.52,4.52,0,0,1,1.1,1.7,5.87,5.87,0,0,1,.4,2.3v11.3l-4.3-.1h0Z"/><path class="cls-1" d="M186.6,139.9a7.06,7.06,0,0,1-2.4,4.6,6.54,6.54,0,0,1-2.3,1.3,8.68,8.68,0,0,1-2.8.5,10.47,10.47,0,0,1-3-.5,7.76,7.76,0,0,1-2.4-1.6,7.2,7.2,0,0,1-1.5-2.7,9.72,9.72,0,0,1-.5-3.8,16.52,16.52,0,0,1,.5-3.8,6.14,6.14,0,0,1,1.5-2.6,6.08,6.08,0,0,1,2.4-1.5,11.15,11.15,0,0,1,3.1-.5,9.25,9.25,0,0,1,2.9.4,7.55,7.55,0,0,1,2.3,1.3,5.85,5.85,0,0,1,1.5,2,7.71,7.71,0,0,1,.7,2.6h-4.3a3,3,0,0,0-1-2,3.14,3.14,0,0,0-2.1-.7,5.85,5.85,0,0,0-1.3.2,2.54,2.54,0,0,0-1,.8,3.69,3.69,0,0,0-.7,1.4,8.33,8.33,0,0,0-.3,2.2,7,7,0,0,0,1,4,2.61,2.61,0,0,0,2.2,1.3,3.14,3.14,0,0,0,2.1-.7,2.61,2.61,0,0,0,1-2l4.4-.2h0Z"/><path class="cls-1" d="M187.8,127.6v-4h4.3v4h-4.3Zm0,18.2V129.5h4.3v16.2l-4.3.1h0Z"/><path class="cls-1" d="M204.1,145.8c-0.1-.5-0.2-1-0.3-1.4a5.58,5.58,0,0,1-2,1.4,7.1,7.1,0,0,1-2.9.5,6,6,0,0,1-4.1-1.2,4.22,4.22,0,0,1-1.3-3.2,5.46,5.46,0,0,1,.6-2.8,4.1,4.1,0,0,1,1.6-1.6,8.54,8.54,0,0,1,2.4-.9,23.42,23.42,0,0,1,3-.5,7.94,7.94,0,0,0,2.2-.6,1.38,1.38,0,0,0,.2-2.1l-0.4-.4a3.44,3.44,0,0,0-2-.4,2.7,2.7,0,0,0-2.1.7,3.7,3.7,0,0,0-.8,1.8h-4a8.52,8.52,0,0,1,.4-2.3,4.39,4.39,0,0,1,1.2-1.8,8.78,8.78,0,0,1,2.1-1.2,13.81,13.81,0,0,1,6.6,0,5.49,5.49,0,0,1,2.1,1.2,5.1,5.1,0,0,1,1.2,2,8.42,8.42,0,0,1,.4,2.7V146l-4.1-.2h0Zm-0.3-8a1.91,1.91,0,0,1-1,.5,11.63,11.63,0,0,1-1.8.4,5.38,5.38,0,0,0-2.5.9,2,2,0,0,0-.7,1.6q0,1.8,2.1,1.8a4,4,0,0,0,1.5-.3,3.72,3.72,0,0,0,2-1.9,3.19,3.19,0,0,0,.3-1.4Z"/><path class="cls-1" d="M209.8,145.8V123.7h4.3v22.2l-4.3-.1h0Z"/><g class="cls-2"><path class="cls-1" d="M65.2,108.9V60H22.8v48.9H0V0H22.8V41H65.2V0h23V108.9h-23Z"/><path class="cls-1" d="M135.6,111a45.54,45.54,0,0,1-17.5-3.1,37.15,37.15,0,0,1-13-8.7A35.7,35.7,0,0,1,97,85.8a50.06,50.06,0,0,1-2.8-17.2,51.22,51.22,0,0,1,2.9-17.4,36.59,36.59,0,0,1,21.3-22,46.83,46.83,0,0,1,17.3-3,46.49,46.49,0,0,1,17.1,3,38.16,38.16,0,0,1,12.9,8.5,36.41,36.41,0,0,1,8.2,13.4,51,51,0,0,1,2.9,17.5,50.57,50.57,0,0,1-2.9,17.5,37.25,37.25,0,0,1-8.2,13.4,36.48,36.48,0,0,1-13,8.6A49.48,49.48,0,0,1,135.6,111Zm0-17.9q19.5,0,19.5-24.6c0-16.3-6.5-24.4-19.5-24.4s-19.5,8.1-19.5,24.4S122.6,93.1,135.6,93.1Z"/><path class="cls-1" d="M278.1,108.9V60c0-4.9-1.1-8.9-3.4-12a10.89,10.89,0,0,0-9.2-4.6,12,12,0,0,0-9.8,4.9,19.26,19.26,0,0,0-3.9,12.3v48.2H230.5V60.3a34.8,34.8,0,0,0-.7-8,10.6,10.6,0,0,0-2.2-4.9,8.3,8.3,0,0,0-4-2.5,20.3,20.3,0,0,0-5.9-.7c-8.6,0-13,5.2-13,15.7v49H183.4V28.2h20V40c2.7-5.4,6-9,9.8-11A29.3,29.3,0,0,1,227,26a32.3,32.3,0,0,1,7.3.7,17.81,17.81,0,0,1,5.7,2.2,22.19,22.19,0,0,1,4.8,4,43.29,43.29,0,0,1,4.6,5.9,22.12,22.12,0,0,1,8.7-9.8,26.7,26.7,0,0,1,13.1-3,31.39,31.39,0,0,1,11.2,2,26.29,26.29,0,0,1,8.7,5.7,28.06,28.06,0,0,1,5.7,8.6,26.53,26.53,0,0,1,2,10.5v55.9H278.1v0.2Z"/><path class="cls-1" d="M327,74.1c0.3,6.1,2.1,11,5.3,14.6A16.26,16.26,0,0,0,345,94.1a17.89,17.89,0,0,0,9.3-2.4,10.94,10.94,0,0,0,5.2-6.6h22c-2.5,8.3-6.9,14.7-13.1,19.2s-13.7,6.7-22.3,6.7c-26.9,0-40.3-14.6-40.3-44a52.58,52.58,0,0,1,2.6-16.9,37.47,37.47,0,0,1,7.6-13,32.68,32.68,0,0,1,12.2-8.3,44.73,44.73,0,0,1,16.6-2.9c12.5,0,21.9,4,28.3,12s9.6,20,9.6,36.1H327v0.1Zm33.6-13.5a20.82,20.82,0,0,0-1.6-7.8,17.09,17.09,0,0,0-3.7-5.6,14.37,14.37,0,0,0-5.2-3.3,18.26,18.26,0,0,0-6.1-1.1,15.2,15.2,0,0,0-11.1,4.7c-3.1,3.1-4.9,7.5-5.3,13h33v0.1Z"/></g></svg>