<?xml version="1.0" encoding="utf-8"?>
<!-- Generator: Adobe Illustrator 19.2.1, SVG Export Plug-In . SVG Version: 6.00 Build 0)  -->
<svg version="1.1" id="Layer_1" xmlns="http://www.w3.org/2000/svg" xmlns:xlink="http://www.w3.org/1999/xlink" x="0px" y="0px"
	 viewBox="0 0 500 500" style="enable-background:new 0 0 500 500;" xml:space="preserve">
<style type="text/css">
	.st0{fill:#156A9E;}
	.st1{fill:#1A84D5;}
	.st2{fill:#FFFFFF;}
</style>
<rect x="74.2" y="72.2" transform="matrix(0.7071 -0.7071 0.7071 0.7071 -102.553 250.4104)" class="st0" width="353.6" height="353.6"/>
<polygon class="st1" points="251,-1 251,499 501,249 "/>
<path class="st2" d="M184.5,352.4c-17,0-31-14.1-30.2-31.1c0-0.1,0-0.2,0-0.3c0.2-5.1,1.7-10,2.7-15c0.6-2.8,1.6-5.5,2.7-8.1
	c2.5-5.2,5-10.6,7.9-15.6c3.2-5.5,6.8-10.9,10.2-16.4c3.8-5.9,7.4-12,11-17.9c3.4-5.5,6.3-11.2,10.1-16.5c2.9-4,3.2-8.1,3-12.7
	c-0.2-4.5-0.1-9.1-0.2-13.6c0-1.9,0.8-2.8,3.1-2.8c5.1-0.1,10.1,0,15.2,0c3.1,0,6.3,0,9.4,0c2.4,0.1,3,0.8,2.9,3.1
	c-0.2,3.9-0.2,7.8-0.2,11.7c0,2.7,1.4,3.4,5.1,2.8c9.7-1.5,19.5-1.5,29.2,0c3.9,0.6,5.2,0.1,5.2-2.9c0-3.9,0-7.7-0.2-11.7
	c-0.1-1.7,1.3-3,3-3.1c8-0.1,15.9-0.1,23.9,0c2,0,3.7,1.7,3.6,3.7c-0.2,6.3-0.2,12.7,0.1,18.9c0.1,1.8,1.1,3.7,2,5.3
	c2.7,4.7,5.5,9.2,8.5,13.8c3.4,5.4,6.8,10.8,10.2,16.2c2.6,4.1,5.1,8.4,7.5,12.5c2.7,4.4,5.3,8.8,8.1,13.2
	c6.2,10,10.2,20.6,10.3,32.5c0,1.1,0,2.1,0,3.2c0,16.6-13.5,30.2-30.2,30.2L184.5,352.4z M279.2,272.7L279.2,272.7
	c1.7-0.1,3.4-0.1,5.1-0.1c2.2,0,2.9-0.6,3-2.9c0.1-1.8,0.1-3.7,0.1-5.5c0-2.3-0.6-3-3-3c-3.6-0.1-7.3,0-10.8,0
	c-1.7,0-2.6,0.9-2.6,2.5c0,2.2,0.1,4.4,0.2,6.6c0.1,1.7,0.9,2.4,2.7,2.4C275.5,272.7,277.3,272.7,279.2,272.7z M279.4,280.9
	L279.4,280.9c-1.8,0-3.7,0-5.5,0c-1.8-0.1-2.9,0.9-2.9,2.7c-0.2,2-0.1,4.1,0.1,6.2c0.2,1.8,1.2,2.8,3,2.8c3.5,0,7.1-0.1,10.6-0.1
	c1.6,0,2.5-0.8,2.6-2.3c0.2-2.3,0.2-4.7,0-7c-0.1-1.7-1-2.3-2.7-2.3C282.8,281,281.1,280.9,279.4,280.9z M250.8,272.6L250.8,272.6
	c1.7,0,3.5,0,5.2,0c1.7-0.1,2.7-0.9,2.7-2.7c0.1-2,0.2-4.1,0.2-6.2c0-1.7-1.1-2.5-2.6-2.5c-3.5-0.1-7.1-0.1-10.6,0
	c-2.2,0.1-2.9,1.1-2.9,3.4c0,1.7,0.1,3.2,0,4.9c-0.1,2,1,3,2.9,3C247.5,272.7,249.2,272.6,250.8,272.6z M279.3,252.6
	c1.9,0,4,0,5.9,0c1.4,0,2.2-0.7,2.2-2c0-2.2,0-4.4-0.1-6.6c-0.1-1.7-0.9-2.5-2.7-2.5c-3.7,0-7.4,0.1-11,0.2c-1.7,0-2.5,0.9-2.6,2.5
	c-0.1,1.9-0.1,4-0.2,5.9c-0.1,1.7,0.8,2.5,2.4,2.6C275.2,252.6,277.3,252.6,279.3,252.6z M223.2,261.2L223.2,261.2
	c-1.9,0.1-4,0.1-5.9,0.1c-1.7,0.1-2.4,0.9-2.4,2.7c0.1,2,0.2,4.1,0.2,6.2c0,1.7,0.7,2.5,2.4,2.6c3.5,0.1,7.1,0.2,10.6,0.2
	c1.7,0,2.7-0.8,2.8-2.6c0.1-2.2,0.2-4.4,0.1-6.6c0-1.6-0.9-2.3-2.4-2.3C226.7,261.2,224.9,261.2,223.2,261.2z M223,292.4L223,292.4
	c1.7,0,3.3-0.1,4.9,0c1.7,0.1,2.8-0.7,2.9-2.4c0.2-2.3,0.2-4.5,0-6.8c-0.1-0.9-1.3-2.2-2-2.3c-3.9-0.2-7.8,0-11.7,0.2
	c-1.5,0.1-2.1,1.1-2.1,2.5c0,2,0,4.1,0.2,6.2c0.1,1.7,1,2.7,2.9,2.7C219.6,292.4,221.3,292.4,223,292.4z M250.9,292.3L250.9,292.3
	c1.3,0.1,2.7,0,4,0.1c2.7,0.1,3.9-0.9,4-3.5c0.1-1.7,0.1-3.4,0-5.1c-0.1-1.8-1.3-2.9-3-2.9c-3.3-0.1-6.6-0.1-9.9,0
	c-1.7,0-2.9,0.9-3,2.7c-0.2,1.9-0.2,4,0,5.9c0.2,1.7,1.2,2.8,3,2.8C247.6,292.3,249.3,292.3,250.9,292.3z M250.9,252.6L250.9,252.6
	c1.7,0,3.5,0,5.3,0c1.7-0.1,2.8-0.9,2.7-2.8c-0.1-1.7-0.1-3.5-0.1-5.3c0-1.7-0.9-2.8-2.6-2.8c-3.6-0.1-7.3-0.1-10.8,0
	c-1.6,0.1-2.4,0.9-2.4,2.7c0,1.7-0.2,3.2-0.2,4.9c-0.1,2.4,0.7,3.4,3.2,3.4C247.6,252.6,249.3,252.6,250.9,252.6z M223.1,252.5
	C223.1,252.6,223.1,252.6,223.1,252.5c1.8,0,3.7,0.1,5.5,0c1.4,0,2.3-0.6,2.3-2.2c0-2.1-0.1-4.2-0.2-6.3c-0.1-1.7-1-2.5-2.6-2.5
	c-3.4,0-7,0.1-10.4,0.2c-2,0.1-2.9,1.3-2.9,3.1c0,1.7,0.1,3.4,0,5.1c-0.1,1.7,0.8,2.6,2.4,2.6C219.2,252.6,221.1,252.5,223.1,252.5z
	"/>
<path class="st2" d="M150.4,216.8c-4.5-0.4-9.1-0.6-13.5-1.2c-2.9-0.4-5.8-1.4-8.6-2.1c-1.5-0.4-1.7-1.7-1.6-2.9
	c0.6-3.1,1-6.3,1.9-9.4c2-6.4,4.1-12.8,6.6-19c1.3-3.4,2.7-7,5-9.8c1.7-1.9,4.8-2.8,7.3-4c1.3-0.6,2.8-1,4.1-1.6
	c0.4-0.2,0.6-0.4,0.9-0.5c6.6-1.7,13.2-3.4,19.9-5.1c4.5-1.1,9.1-2.3,13.7-3.1s9.2-1.7,13.8-2.3c6.9-0.9,13.8-1.9,20.7-2.5
	c9.7-0.6,19.5-0.9,29.2-1c8.1-0.1,16.3-0.2,24.5,0.5c10.2,0.8,20.4,2.3,30.6,3.5c1.6,0.2,3.1,0.3,4.6,0.6c6.2,1.2,12.3,2.3,18.5,3.8
	c7,1.7,13.8,3.5,20.7,5.5c4.1,1.2,8.2,2.5,12,4.3c1.6,0.7,2.7,2.9,3.5,4.5c2.2,4.5,4.3,9.1,6.2,13.7c1.4,3.5,2.3,7.4,3.4,10.9
	c0.8,2.9,1.6,5.7,2.1,8.6c0.6,2.8-0.2,4.1-3,4.9c-2.9,0.6-5.9,1.1-8.8,1.4c-5.1,0.5-10.3,0.7-15.4,0.9c-1.7,0.1-3.4-0.5-5-0.7
	c-4.6-0.9-9.3-1.7-13.9-2.8c-3.4-0.8-6.6-1.9-9.9-3c-2.2-0.7-4.5-1.6-6.3-2.7c-0.9-0.6-1.4-2.1-1.5-3.2c-0.3-5.5-2.7-9.5-7.3-12.4
	c-5.6-3.8-12-5.2-18.6-6.6c-14.8-3.1-29.8-2.6-44.7-2.4c-8,0.1-15.9,0.9-23.8,2.2c-5.9,1-11.6,2.6-16.7,5.1
	c-5.3,2.7-9.7,6.4-9.5,13.4c0.1,2.4-1.8,3.6-3.7,4.5c-4.5,2-9.1,4.1-13.8,5.9c-5.9,2-12,3.6-18.5,3.8c-1.7,0-3.3,0.2-4.9,0.2
	C150.4,216.6,150.4,216.7,150.4,216.8z"/>
<path class="st2" d="M152.2,248c-4.3-0.6-9.2-1.1-14-2.1c-5.5-1.2-9.1-4.5-10.6-10.3c-1-4.1-1.7-8.4-1.7-12.6c0-3.4,0.7-3.8,3.9-3
	c9.2,2.3,18.6,3.8,28.1,2.8c7.1-0.8,14-2.5,20.7-4.7c2.6-0.8,4.9-2.1,7.4-3.2c0.6-0.2,1-0.6,1.6-0.7c2.9-1.1,3.8-0.5,3.5,2.5
	c-0.5,4.3-0.7,8.8-1.9,13c-1.4,4.8-4.3,8.8-8.7,11.7c-5.8,3.6-12.1,5.1-18.8,5.6C158.7,247.1,155.8,247.5,152.2,248z"/>
<path class="st2" d="M350.9,246.2c-4-0.2-8.1-0.2-12.1-0.7c-6.6-0.9-13.1-2.7-18.4-7c-6.3-5.1-8.5-12-8.5-19.9c0-1.5,0-3,0.2-4.5
	c0.2-1.6,1.2-2.1,2.7-1.3c6.5,3.8,13.8,5.2,21,7.4c2.2,0.6,4.6,0.6,7,0.7c4.6,0.3,9.1,0.7,13.8,0.6c4.9-0.2,9.8-1,14.8-1.7
	c0.9-0.2,1.7-0.6,2.6-0.9c1.7-0.6,2.9,0,2.9,1.8c-0.1,3.9,0.1,7.8-0.6,11.7c-0.9,5.2-3.4,9.5-9,11.6
	C361.6,246.1,356.4,245.7,350.9,246.2z"/>
</svg>
