<?xml version="1.0" encoding="utf-8"?>
<!-- Generator: Adobe Illustrator 19.2.1, SVG Export Plug-In . SVG Version: 6.00 Build 0)  -->
<svg version="1.1" id="Layer_1" xmlns="http://www.w3.org/2000/svg" xmlns:xlink="http://www.w3.org/1999/xlink" x="0px" y="0px"
	 viewBox="0 0 391.8 147.6" style="enable-background:new 0 0 391.8 147.6;" xml:space="preserve">
<style type="text/css">
	.st0{fill:#FFFFFF;}
</style>
<title>Untitled-1</title>
<g>
	<path class="st0" d="M0.8,139.5v-21.9h9.7c1,0,2,0.2,2.9,0.5c0.8,0.3,1.6,0.9,2.2,1.5c0.6,0.7,1.1,1.4,1.4,2.3
		c0.3,0.9,0.5,1.8,0.5,2.8c0,0.9-0.2,1.9-0.5,2.8c-0.3,0.8-0.8,1.6-1.4,2.2c-0.6,0.6-1.4,1.1-2.2,1.4c-0.9,0.4-1.9,0.5-2.9,0.5H5.4
		v8L0.8,139.5L0.8,139.5z M9.7,127.9c1,0.1,2.1-0.2,2.9-0.9c0.6-0.6,0.9-1.5,0.9-2.4c0-0.8-0.3-1.7-0.9-2.3c-0.8-0.7-1.8-1-2.8-0.9
		H5.4v6.4L9.7,127.9L9.7,127.9z"/>
	<path class="st0" d="M26.3,140c-1.2,0-2.4-0.2-3.5-0.6c-2-0.8-3.6-2.4-4.3-4.5c-0.4-1.1-0.6-2.3-0.6-3.5s0.2-2.4,0.6-3.5
		c0.4-1,0.9-1.9,1.7-2.7c0.7-0.8,1.6-1.3,2.6-1.7c1.1-0.4,2.3-0.6,3.5-0.6s2.3,0.2,3.4,0.6c2,0.8,3.5,2.4,4.2,4.4
		c0.4,1.1,0.6,2.3,0.6,3.5s-0.2,2.4-0.6,3.5c-0.4,1-0.9,1.9-1.7,2.7c-0.7,0.8-1.6,1.3-2.6,1.7C28.7,139.7,27.5,140,26.3,140z
		 M26.3,136.4c2.6,0,3.9-1.7,3.9-5s-1.3-5-3.9-4.9c-2.6,0-3.9,1.6-3.9,4.9S23.7,136.3,26.3,136.4z"/>
	<path class="st0" d="M36.1,121.4v-4h4.3v4H36.1z M36.1,139.5v-16.2h4.3v16.2H36.1L36.1,139.5z"/>
	<path class="st0" d="M52.6,139.5v-9.8c0.1-0.9-0.1-1.8-0.6-2.5c-0.6-0.5-1.4-0.7-2.2-0.7c-2.2,0-3.3,1.2-3.3,3.7v9.3h-4.3v-16.2
		h4.1v2.4c0.5-0.9,1.1-1.6,2-2.1c1-0.5,2.1-0.8,3.2-0.7c0.7,0,1.5,0.1,2.2,0.3c0.6,0.2,1.2,0.5,1.7,1s0.9,1.1,1.1,1.7
		c0.3,0.7,0.4,1.5,0.4,2.3v11.3H52.6L52.6,139.5z"/>
	<path class="st0" d="M67.8,128.8h4v4.6c0,0.8-0.1,1.7-0.4,2.5c-0.2,0.8-0.7,1.5-1.2,2.1c-0.6,0.6-1.2,1.1-2,1.4c-1,0.4-2,0.6-3,0.5
		c-1,0-2-0.2-3-0.5c-0.8-0.3-1.5-0.8-2.1-1.4c-0.5-0.6-0.9-1.3-1.2-2.1c-0.2-0.8-0.4-1.7-0.4-2.5v-14.5h4.2v4.4h9v3h-9v6.7
		c0,0.8,0.2,1.7,0.6,2.4c0.4,0.6,1.2,0.9,1.9,0.8c0.7,0.1,1.4-0.3,1.9-0.8c0.4-0.7,0.7-1.5,0.6-2.3L67.8,128.8L67.8,128.8z"/>
	<path class="st0" d="M86,139.5v-5.6c0.1-0.8-0.2-1.6-0.7-2.3c-0.8-0.5-1.8-0.8-2.7-0.7h-4.9v8.6h-4.5v-21.9h11.2
		c0.9,0,1.9,0.2,2.8,0.5c0.8,0.3,1.5,0.7,2.1,1.3c0.6,0.6,1.1,1.2,1.4,2c0.3,0.8,0.5,1.7,0.5,2.5c0,1.1-0.3,2.2-0.8,3.1
		c-0.6,0.9-1.4,1.6-2.4,1.9c0.8,0.2,1.6,0.7,2.1,1.4c0.5,0.9,0.7,1.9,0.6,2.9v6.2L86,139.5L86,139.5z M77.7,121.4v5.8h5.7
		c0.9,0.1,1.9-0.2,2.6-0.8c0.5-0.6,0.8-1.3,0.8-2.1s-0.2-1.5-0.7-2.1c-0.7-0.6-1.6-0.9-2.5-0.8L77.7,121.4L77.7,121.4z"/>
	<path class="st0" d="M104.9,130.3v9.2h-4.6v-21.9h15.6v3.8h-11v5h9.6v3.9L104.9,130.3L104.9,130.3z"/>
	<path class="st0" d="M117,121.4v-4h4.3v4H117z M117,139.5v-16.2h4.3v16.2H117L117,139.5z"/>
	<path class="st0" d="M133.5,139.5v-9.8c0.1-0.9-0.1-1.8-0.6-2.5c-0.6-0.5-1.4-0.7-2.1-0.7c-2.2,0-3.3,1.2-3.3,3.7v9.3h-4.3v-16.2
		h4.1v2.4c0.5-0.9,1.1-1.6,2-2.1c1-0.5,2.1-0.8,3.2-0.7c0.7,0,1.5,0.1,2.1,0.4c0.6,0.2,1.2,0.5,1.7,1s0.9,1.1,1.1,1.7
		c0.3,0.7,0.4,1.5,0.4,2.3v11.3L133.5,139.5L133.5,139.5z"/>
	<path class="st0" d="M149.7,139.5c-0.1-0.5-0.2-1-0.3-1.5c-0.6,0.6-1.2,1.1-2,1.4c-0.9,0.4-1.9,0.5-2.9,0.5
		c-1.5,0.1-2.9-0.3-4.1-1.2c-0.9-0.8-1.3-2-1.3-3.2c0-1,0.1-1.9,0.6-2.8c0.4-0.7,0.9-1.2,1.6-1.6c0.7-0.4,1.5-0.7,2.4-0.9
		s1.9-0.4,3-0.5c0.8-0.1,1.5-0.3,2.2-0.6c0.7-0.5,0.8-1.5,0.2-2.1c-0.1-0.1-0.3-0.3-0.4-0.4c-0.6-0.3-1.3-0.5-2-0.5
		c-0.8-0.1-1.5,0.2-2.1,0.7c-0.4,0.5-0.7,1.1-0.8,1.8h-4c0-0.8,0.2-1.6,0.4-2.3s0.7-1.3,1.2-1.8c0.6-0.5,1.4-0.9,2.2-1.2
		c1.1-0.3,2.2-0.4,3.3-0.4s2.2,0.1,3.3,0.4c0.8,0.2,1.5,0.7,2.1,1.2c0.6,0.6,1,1.2,1.2,2c0.3,0.9,0.4,1.8,0.4,2.7v10.3L149.7,139.5
		L149.7,139.5z M149.4,131.5c-0.3,0.3-0.6,0.4-1,0.5c-0.6,0.2-1.2,0.3-1.8,0.4c-0.9,0.1-1.8,0.4-2.5,0.9c-0.5,0.4-0.7,1-0.7,1.6
		c0,1.2,0.7,1.8,2.1,1.8c0.5,0,1-0.1,1.5-0.3c0.9-0.4,1.6-1,2-1.9c0.2-0.4,0.3-0.9,0.3-1.4L149.4,131.5z"/>
	<path class="st0" d="M165.8,139.5v-9.8c0.1-0.9-0.1-1.8-0.6-2.5c-0.6-0.5-1.4-0.7-2.1-0.7c-2.2,0-3.3,1.2-3.3,3.7v9.3h-4.3v-16.2
		h4.1v2.4c0.5-0.9,1.1-1.6,2-2.1c1-0.5,2.1-0.8,3.2-0.7c0.7,0,1.5,0.1,2.1,0.4c0.6,0.2,1.2,0.5,1.7,1s0.9,1.1,1.1,1.7
		c0.3,0.7,0.4,1.5,0.4,2.3v11.3L165.8,139.5L165.8,139.5z"/>
	<path class="st0" d="M186.5,133.7c-0.1,0.9-0.4,1.8-0.8,2.6c-0.4,0.8-1,1.4-1.6,2c-0.7,0.6-1.4,1-2.3,1.3c-0.9,0.3-1.8,0.5-2.8,0.5
		s-2-0.2-3-0.5c-0.9-0.4-1.7-0.9-2.4-1.6c-0.7-0.8-1.2-1.7-1.5-2.7c-0.4-1.2-0.6-2.5-0.5-3.8c0-1.3,0.2-2.5,0.5-3.8
		c0.3-1,0.8-1.9,1.5-2.6c0.7-0.7,1.5-1.2,2.4-1.5c1-0.3,2.1-0.5,3.1-0.5s2,0.1,2.9,0.4c0.8,0.3,1.6,0.7,2.3,1.3
		c0.6,0.6,1.2,1.2,1.5,2c0.4,0.8,0.6,1.7,0.7,2.6h-4.3c-0.1-0.8-0.4-1.5-1-2s-1.3-0.7-2.1-0.7c-0.4,0-0.9,0.1-1.3,0.2
		c-0.4,0.2-0.7,0.4-1,0.8c-0.3,0.4-0.6,0.9-0.7,1.5c-0.2,0.7-0.3,1.5-0.3,2.2c-0.1,1.4,0.3,2.8,1,4c0.5,0.8,1.3,1.3,2.2,1.3
		c0.8,0,1.5-0.2,2.1-0.7s1-1.2,1-2L186.5,133.7L186.5,133.7z"/>
	<path class="st0" d="M187.7,121.4v-4h4.3v4H187.7z M187.7,139.5v-16.2h4.3v16.2H187.7L187.7,139.5z"/>
	<path class="st0" d="M204,139.5c-0.1-0.5-0.2-1-0.3-1.5c-0.6,0.6-1.2,1.1-2,1.4c-0.9,0.4-1.9,0.5-2.9,0.5c-1.5,0.1-2.9-0.3-4.1-1.2
		c-0.9-0.8-1.3-2-1.3-3.2c0-1,0.1-1.9,0.6-2.8c0.4-0.7,0.9-1.2,1.6-1.6c0.7-0.4,1.5-0.7,2.4-0.9s1.9-0.4,3-0.5
		c0.8-0.1,1.5-0.3,2.2-0.6c0.7-0.5,0.8-1.5,0.2-2.1c-0.1-0.1-0.3-0.3-0.4-0.4c-0.6-0.3-1.3-0.5-2-0.5c-0.8-0.1-1.5,0.2-2.1,0.7
		c-0.4,0.5-0.7,1.1-0.8,1.8h-4c0-0.8,0.2-1.6,0.4-2.3s0.7-1.3,1.2-1.8c0.6-0.5,1.4-0.9,2.1-1.2c1.1-0.3,2.2-0.4,3.3-0.4
		s2.2,0.1,3.2,0.4c0.8,0.2,1.5,0.7,2.1,1.2c0.5,0.6,1,1.2,1.2,2c0.3,0.9,0.4,1.8,0.4,2.7v10.3L204,139.5L204,139.5z M203.7,131.5
		c-0.3,0.3-0.6,0.4-1,0.5c-0.6,0.2-1.2,0.3-1.8,0.4c-0.9,0.1-1.8,0.4-2.5,0.9c-0.5,0.4-0.7,1-0.7,1.6c0,1.2,0.7,1.8,2.1,1.8
		c0.5,0,1-0.1,1.5-0.3c0.9-0.4,1.6-1,2-1.9c0.2-0.4,0.3-0.9,0.3-1.4L203.7,131.5z"/>
	<path class="st0" d="M209.7,139.5v-22.1h4.3v22.2L209.7,139.5L209.7,139.5z"/>
</g>
<g>
	<path class="st0" d="M44.8,44c-0.4-3.8-1.8-6.6-4.1-8.5c-2.4-1.9-6-2.8-10.8-2.8c-8.8,0-13.2,3-13.2,9.1c0,2.2,0.9,4,2.7,5.4
		c1.8,1.5,4.8,2.7,8.8,3.6c4.8,1.1,8.9,2.2,12.4,3.1c3.5,1,6.7,2.1,9.6,3.4c1.6,0.7,3.2,1.5,4.6,2.5c1.5,1,2.7,2.3,3.7,3.8
		c1,1.5,1.8,3.3,2.4,5.4c0.6,2.1,0.9,4.6,0.9,7.6c0,3.6-0.7,6.8-2.2,9.5c-1.5,2.8-3.5,5.1-6,7c-2.5,1.9-5.5,3.4-9,4.4
		c-3.4,1-7.1,1.5-10.9,1.5c-10.8,0-19-2.1-24.4-6.3C4,88.5,1.1,82.3,0.8,74.1h15c0.1,3.8,1.6,6.8,4.6,9c3,2.2,6.8,3.3,11.4,3.3
		c4.9,0,8.7-0.9,11.2-2.7c2.5-1.8,3.8-4.2,3.8-7.3c0-1.2-0.2-2.3-0.4-3.3c-0.3-1-0.9-1.9-1.7-2.7c-0.9-0.8-2-1.5-3.5-2.2
		c-1.5-0.6-3.4-1.2-5.8-1.7c-5.7-1.2-10.6-2.4-14.7-3.6s-7.6-2.8-10.2-4.6c-2.7-1.8-4.7-4-5.9-6.7c-1.3-2.6-1.9-5.9-1.9-10
		c0-3.1,0.6-5.9,1.7-8.6c1.1-2.7,2.8-5,5.2-7c2.3-2,5.2-3.5,8.6-4.7c3.4-1.2,7.4-1.7,12-1.7c4.5,0,8.5,0.6,12.1,1.7
		c3.6,1.2,6.7,2.8,9.2,4.9s4.6,4.7,6,7.7c1.4,3,2.2,6.4,2.4,10H44.8z"/>
	<path class="st0" d="M78.9,72.6c0.2,4.2,1.4,7.5,3.6,10c2.2,2.5,5.1,3.7,8.7,3.7c2.4,0,4.5-0.5,6.3-1.6c1.8-1.1,3-2.6,3.5-4.5h15
		c-1.7,5.7-4.7,10-9,13.1c-4.3,3.1-9.3,4.6-15.2,4.6c-18.4,0-27.6-10-27.6-30c0-4.3,0.6-8.1,1.8-11.5c1.2-3.4,2.9-6.4,5.2-8.8
		c2.3-2.5,5.1-4.3,8.3-5.7c3.3-1.3,7.1-2,11.3-2c8.5,0,15,2.7,19.3,8.2c4.4,5.5,6.6,13.7,6.6,24.6H78.9z M101.8,63.5
		c-0.1-2-0.4-3.8-1.1-5.3c-0.6-1.5-1.5-2.8-2.5-3.8c-1-1-2.2-1.8-3.6-2.2c-1.3-0.5-2.7-0.7-4.1-0.7c-2.9,0-5.4,1.1-7.6,3.2
		s-3.3,5.1-3.6,8.9H101.8z"/>
	<path class="st0" d="M121.3,96.4V41.3H135v6.6c1.2-1.9,2.4-3.3,3.8-4.4c1.3-1,2.6-1.8,4-2.4c1.4-0.6,2.8-0.9,4.2-1.1
		c1.4-0.1,2.9-0.2,4.4-0.2h1.9v14.9c-1.3-0.2-2.7-0.3-4-0.3c-8.9,0-13.3,4.4-13.3,13.3v28.7H121.3z"/>
	<path class="st0" d="M173.7,96.4L154,41.3h16.2l11.5,36.4l11.6-36.4h15.3L189,96.4H173.7z"/>
	<path class="st0" d="M212.5,34.7V21.1H227v13.6H212.5z M212.5,96.4V41.3H227v55.1H212.5z"/>
	<path class="st0" d="M282.8,76.4c-0.4,3.2-1.3,6.1-2.7,8.7c-1.5,2.6-3.3,4.9-5.5,6.7c-2.2,1.9-4.8,3.3-7.7,4.4
		c-2.9,1-6,1.6-9.4,1.6c-3.7,0-7.2-0.6-10.2-1.8c-3.1-1.2-5.8-3.1-8-5.6c-2.2-2.5-4-5.6-5.2-9.3c-1.2-3.7-1.8-8-1.8-12.9
		c0-4.9,0.6-9.2,1.8-12.8s3-6.5,5.2-8.8c2.2-2.3,4.9-4,8.1-5.1c3.2-1.1,6.7-1.7,10.6-1.7c3.6,0,6.8,0.5,9.8,1.5
		c2.9,1,5.5,2.4,7.7,4.3c2.2,1.9,3.9,4.1,5.2,6.7c1.3,2.6,2,5.5,2.2,8.7h-14.7c-0.4-2.8-1.5-5.1-3.4-6.7c-1.9-1.6-4.2-2.4-7-2.4
		c-1.6,0-3,0.3-4.4,0.8c-1.3,0.5-2.5,1.4-3.5,2.6s-1.8,2.9-2.4,4.9c-0.6,2.1-0.9,4.6-0.9,7.6c0,6,1.1,10.5,3.2,13.4
		c2.2,2.9,4.7,4.4,7.5,4.4c2.8,0,5.3-0.8,7.3-2.4c2-1.6,3.2-3.8,3.5-6.8H282.8z"/>
	<path class="st0" d="M299.8,72.6c0.2,4.2,1.4,7.5,3.6,10c2.2,2.5,5.1,3.7,8.7,3.7c2.4,0,4.5-0.5,6.3-1.6c1.8-1.1,3-2.6,3.5-4.5h15
		c-1.7,5.7-4.7,10-9,13.1c-4.3,3.1-9.3,4.6-15.2,4.6c-18.4,0-27.6-10-27.6-30c0-4.3,0.6-8.1,1.8-11.5c1.2-3.4,2.9-6.4,5.2-8.8
		c2.3-2.5,5.1-4.3,8.3-5.7c3.3-1.3,7.1-2,11.3-2c8.5,0,15,2.7,19.3,8.2c4.4,5.5,6.6,13.7,6.6,24.6H299.8z M322.8,63.5
		c-0.1-2-0.4-3.8-1.1-5.3c-0.6-1.5-1.5-2.8-2.5-3.8c-1-1-2.2-1.8-3.6-2.2c-1.3-0.5-2.7-0.7-4.1-0.7c-2.9,0-5.4,1.1-7.6,3.2
		s-3.3,5.1-3.6,8.9H322.8z"/>
	<path class="st0" d="M375.4,58c-0.4-2.5-1.3-4.4-2.9-5.5c-1.5-1.2-3.9-1.7-7-1.7c-3,0-5.2,0.4-6.8,1.1c-1.5,0.7-2.3,1.9-2.3,3.6
		c0,1.5,0.8,2.7,2.3,3.6c1.5,0.9,3.8,1.8,6.7,2.6c4.8,1.3,8.8,2.5,12.1,3.4c3.3,0.9,5.9,2,7.9,3.3c2,1.3,3.4,2.9,4.3,4.8
		c0.9,1.9,1.3,4.5,1.3,7.7c0,4.9-2.1,9-6.2,12.3c-4.1,3.2-10.2,4.9-18.3,4.9c-4,0-7.5-0.4-10.8-1.3c-3.2-0.9-6-2.2-8.2-3.9
		c-2.3-1.7-4-3.7-5.3-6c-1.2-2.4-1.9-5-2-7.9h15c0,2.6,1,4.6,3.1,6c2.1,1.4,4.7,2.1,8,2.1c2.8,0,5.1-0.4,7.1-1.3c2-0.9,3-2.2,3-4
		c0-2-0.7-3.5-2.2-4.4s-3.7-1.7-6.7-2.4c-5.4-1.2-9.7-2.4-13-3.8c-3.3-1.3-5.8-2.7-7.7-4.3c-1.8-1.6-3.1-3.3-3.7-5.2
		c-0.6-1.9-1-4-1-6.3c0-2.1,0.4-4.1,1.3-5.9c0.9-1.9,2.2-3.5,4.1-4.9c1.9-1.4,4.3-2.6,7.3-3.4c3-0.9,6.6-1.3,11-1.3
		c7.9,0,13.7,1.6,17.4,4.8c3.7,3.2,5.7,7.7,6,13.3H375.4z"/>
</g>
</svg>
