<?xml version="1.0" encoding="utf-8"?>
<!-- Generator: Adobe Illustrator 19.2.1, SVG Export Plug-In . SVG Version: 6.00 Build 0)  -->
<svg version="1.1" id="Layer_1" xmlns="http://www.w3.org/2000/svg" xmlns:xlink="http://www.w3.org/1999/xlink" x="0px" y="0px"
	 viewBox="0 0 500 500" style="enable-background:new 0 0 500 500;" xml:space="preserve">
<style type="text/css">
	.st0{fill:#156A9E;}
	.st1{fill:#1A84D5;}
	.st2{fill:#FFFFFF;}
</style>
<rect x="74.2" y="72.2" transform="matrix(0.7071 -0.7071 0.7071 0.7071 -102.553 250.4104)" class="st0" width="353.6" height="353.6"/>
<polygon class="st1" points="251,-1 251,499 501,249 "/>
<g>
	<path class="st2" d="M297,191.4L297,191.4c-6.4,6.3-16.4,7.2-23.6,2.1c-8.2-5.9-16.6-8.9-24.6-8.9c-7,0-12.7,1.9-17.1,5.6
		c-4.4,3.7-6.5,8.1-6.5,13c0,4.2,2,8.2,5.8,12.3c3.8,4.2,11.4,8.6,22.9,13.2c20.5,8.5,34.4,15.7,42,21.7s13.3,13.1,17.4,21.7
		c4,8.3,6.1,17.8,6.1,28.3s-2.2,20-6.4,28.9c-4.3,8.8-10,15.9-16.8,21c-6.9,5.2-16.7,9.1-29.4,11.8v36.9h-26v-36.1
		c-12.2-1.3-22.5-4.3-31-9.1c-6.1-3.4-11.9-7.3-17.5-11.9c-8.5-6.9-9.1-19.7-1.5-27.5l0.2-0.2c6.8-7,17.8-7.5,25.4-1.4
		c12.3,10.1,24.4,15,36.1,15.1c7.8,0.1,15.4-2.9,21-8.3c5.8-5.6,8.7-12.1,8.7-19.7c0-6.4-1.8-11.9-5.5-16.8
		c-3.8-4.8-11.1-9.7-21.8-14.7c-21.9-10.1-36.8-18.2-44.6-24.1c-7.7-5.9-13.6-12.6-17.4-20c-3.8-7.4-5.8-15.3-5.8-23.7
		c0-13.9,5.1-25.9,15.2-35.7c10.1-10,22.9-15.2,38.4-16v-13.8h26v15.6c8.9,2.2,16.6,5,22.7,8.6c1.8,1,3.7,2.3,5.7,3.7
		C304.3,169.7,305.2,183.3,297,191.4z"/>
</g>
<path class="st2" d="M253.5,100.7L253.5,100.7c9.2,0,16.6,7.4,16.6,16.6v31.5c0,9.2-7.4,16.6-16.6,16.6h0c-9.2,0-16.6-7.4-16.6-16.6
	v-31.5C236.9,108.1,244.3,100.7,253.5,100.7z"/>
<path class="st2" d="M253.5,340.1L253.5,340.1c9.2,0,16.6,7.4,16.6,16.6v31.5c0,9.2-7.4,16.6-16.6,16.6h0c-9.2,0-16.6-7.4-16.6-16.6
	v-31.5C236.9,347.5,244.3,340.1,253.5,340.1z"/>
</svg>
