<?xml version="1.0" encoding="utf-8"?>
<!-- Generator: Adobe Illustrator 19.2.1, SVG Export Plug-In . SVG Version: 6.00 Build 0)  -->
<svg version="1.1" id="Layer_1" xmlns="http://www.w3.org/2000/svg" xmlns:xlink="http://www.w3.org/1999/xlink" x="0px" y="0px"
	 viewBox="0 0 257.6 101.2" style="enable-background:new 0 0 257.6 101.2;" xml:space="preserve">
<style type="text/css">
	.st0{fill:#231F20;}
</style>
<title>signiture</title>
<path class="st0" d="M25.2,9.6c-0.1,0.8-0.4,1.5-0.7,2.2c-0.3,0.6-0.8,1.2-1.3,1.7c-0.5,0.5-1.1,0.8-1.8,1.1
	c-0.7,0.3-1.5,0.4-2.2,0.4c-0.9,0-1.7-0.1-2.6-0.5c-0.8-0.3-1.4-0.8-2-1.4c-0.6-0.7-1.1-1.4-1.4-2.3c-0.4-1-0.5-2.1-0.5-3.1
	c0-1.1,0.1-2.1,0.4-3.2C13.5,3.5,14,2.7,14.5,2c0.5-0.6,1.2-1.2,2-1.5C17.4,0.2,18.3,0,19.2,0c0.8,0,1.6,0.1,2.4,0.4
	c0.7,0.2,1.3,0.6,1.8,1.1c0.5,0.5,0.9,1,1.2,1.6c0.3,0.6,0.5,1.3,0.6,2h-2.9c-0.2-0.7-0.6-1.4-1.1-1.9c-1.4-1.1-3.5-0.8-4.6,0.6
	c0,0,0,0,0,0c-1.1,2.3-1.1,5,0,7.2c0.6,0.9,1.5,1.3,2.6,1.3c0.8,0,1.5-0.2,2.1-0.7c0.6-0.5,0.9-1.2,1.1-2L25.2,9.6L25.2,9.6z"/>
<path class="st0" d="M26.8,14.4V0.5H37v2.4h-7.4v3h6.8v2.5h-6.8V12h7.8v2.5L26.8,14.4L26.8,14.4z"/>
<path class="st0" d="M45.4,14.9c-1.9,0.1-3.7-0.6-5-1.9c-1.2-1.5-1.9-3.5-1.7-5.4c0-1.1,0.1-2.1,0.4-3.2c0.3-0.9,0.7-1.7,1.3-2.4
	c0.6-0.7,1.3-1.2,2.1-1.5c1.8-0.7,3.9-0.7,5.7,0C49,0.8,49.7,1.4,50.3,2c0.6,0.7,1,1.5,1.3,2.4c0.3,1,0.5,2.1,0.4,3.2
	c0.1,2-0.5,3.9-1.7,5.4C49,14.3,47.2,15,45.4,14.9z M45.4,12.4c0.5,0,1-0.1,1.5-0.3c0.5-0.2,0.9-0.5,1.2-0.9
	c0.4-0.4,0.6-0.9,0.8-1.5c0.2-0.7,0.3-1.4,0.3-2.1c0.1-1.3-0.3-2.6-1-3.8c-0.7-0.9-1.7-1.3-2.8-1.3c-1.1-0.1-2.2,0.4-2.8,1.3
	c-0.7,1.1-1.1,2.4-1,3.8c-0.1,1.3,0.2,2.6,1,3.6C43.3,12,44.3,12.5,45.4,12.4z"/>
<path class="st0" d="M53.1,14.4v-2.8H56v2.8L53.1,14.4L53.1,14.4z"/>
<g>
	<path d="M42.3,49.9c-1.2-1.9-1.8-3.6-1.8-5.2c0-2,0.6-3.7,1.7-5.3c1.1-1.5,2.6-2.9,4.4-4.2c1.9-1.2,4-2.3,6.4-3.2
		c2.4-0.9,5-1.6,7.7-2.3c2.7-0.6,5.4-1.2,8.2-1.6c2.8-0.4,5.4-0.7,7.9-0.9c2.5-0.2,4.8-0.4,6.8-0.5c2.1-0.1,3.7-0.1,5-0.1
		c3.4,0,5.6,0.8,6.6,2.5c0.9,1.7,0.5,4-1.5,6.9c-2.3,3.3-4.7,6.7-7.2,10.1c-2.5,3.5-5.1,6.8-7.7,10.1c0.4,0,0.9,0,1.4,0
		c0.5,0,1,0,1.6-0.1c0.6,0,1.3,0,2.1,0c0.8,0,1.7,0,2.8,0l5.6,3.4h-4.8c-2,0-3.9,0-5.8,0c-1.9,0-3.8,0.1-5.8,0.3
		c-1.6,2-3.2,3.9-4.9,5.8c-1.7,1.9-3.4,3.9-5.2,5.8c-1.9,2-4,4.2-6.2,6.5c-2.2,2.3-4.5,4.5-7,6.8c-2.4,2.2-5,4.3-7.6,6.3
		c-2.7,2-5.4,3.8-8.2,5.3c-2.8,1.5-5.7,2.7-8.6,3.5s-6,1.2-9,1.2c-1,0-2-0.2-3.1-0.5c-1.1-0.3-2-0.8-2.9-1.4S11.6,97.9,11,97
		c-0.6-0.9-0.8-1.9-0.8-3.1c0-1.1,0.2-2.1,0.6-3.2c0.4-1.1,1-2.2,1.6-3.2c0.6-1,1.3-2,2-2.9c0.7-0.9,1.3-1.7,1.9-2.3
		c2.2-2.6,4.7-5,7.6-7.3c2.9-2.2,5.9-4.3,9.2-6.1c3.3-1.9,6.6-3.5,10.1-4.9c3.5-1.4,7-2.7,10.4-3.7c3.3-1,6.6-1.7,9.9-2.3
		c3.3-0.6,6.8-1,10.4-1.3c2.4-3,4.8-6.1,7.2-9.3c2.3-3.1,4.7-6.4,7.1-9.7c0.3-0.5,0.7-1,1.2-1.5c0.4-0.5,0.8-1.1,1.2-1.6
		c0.4-0.5,0.7-1,0.9-1.5c0.2-0.5,0.2-0.9,0.1-1.3c-0.1-0.4-0.4-0.7-0.9-1c-0.5-0.3-1.3-0.4-2.4-0.5c-1.4,0.2-3,0.3-5,0.5
		c-2,0.2-4.2,0.4-6.5,0.6c-2.3,0.2-4.8,0.5-7.3,0.8c-2.5,0.3-5,0.7-7.4,1.2c-2.4,0.5-4.7,1.1-6.9,1.7c-2.2,0.7-4.1,1.5-5.7,2.5
		c-1.6,1-3,2.1-3.9,3.4c-1,1.3-1.5,2.8-1.5,4.4c0,0.8,0.3,1.8,0.9,2.9c0.6,1.1,1.4,2.3,2.5,3.7L42.3,49.9z M63,69.4
		c0.7-0.8,1.5-1.5,2.1-2.2c0.7-0.7,1.3-1.4,1.9-2.1c0.6-0.7,1.2-1.4,1.9-2.1c0.6-0.7,1.3-1.5,2-2.4c-2.7,0.3-5.4,0.7-8.1,1.2
		c-2.7,0.5-5.4,1.1-8.2,1.9c-3.1,1-6.3,2.1-9.5,3.4c-3.2,1.3-6.3,2.8-9.3,4.4c-3,1.7-5.9,3.5-8.6,5.5c-2.7,2-5.2,4.2-7.4,6.6
		c-0.7,0.8-1.5,1.7-2.3,2.7c-0.8,1-1.5,2.1-2,3.2c-0.6,1.1-0.9,2.1-1.1,3.2c-0.2,1-0.1,1.9,0.3,2.7c0.4,0.8,1.2,1.4,2.3,1.9
		c1.2,0.5,2.8,0.7,5,0.6h-0.1c2.2,0,4.5-0.5,6.9-1.4c2.4-0.9,4.8-2,7.2-3.5c2.4-1.4,4.9-3.1,7.3-5c2.4-1.9,4.8-3.9,7.1-6
		c2.3-2.1,4.5-4.2,6.7-6.4C59.2,73.4,61.2,71.3,63,69.4z"/>
	<path d="M105.9,54.5c0.5,0.3,0.9,0.7,0.9,1.2c0.1,0.5,0.1,1-0.1,1.6c-0.2,0.5-0.4,1.1-0.7,1.6c-0.3,0.5-0.5,0.9-0.7,1.1
		c-0.9,1.2-1.9,2.3-2.9,3.4c-1.1,1.1-2,2.1-2.7,3c-0.8,0.9-1.3,1.6-1.6,2.1c-0.3,0.5-0.1,0.7,0.6,0.6h-0.1c0.9-0.5,1.6-1,2.3-1.4
		c0.6-0.4,1.3-0.8,1.9-1.2c0.6-0.4,1.3-0.9,2-1.4c0.7-0.5,1.5-1.1,2.5-1.9l0.3,3.3c-0.7,0.5-1.6,1.1-2.5,1.8s-1.8,1.3-2.8,1.9
		s-1.8,1.1-2.6,1.6c-0.8,0.5-1.5,0.8-2.1,1c-1.1,0.4-1.8,0.4-2.3,0.1c-0.4-0.3-0.6-0.9-0.6-1.6c0-0.1,0-0.3,0-0.5
		c0-0.2,0-0.4,0.1-0.6L94,70.7c-0.2,0.2-0.5,0.4-0.9,0.6c-0.4,0.3-0.8,0.5-1.3,0.8c-0.5,0.3-1,0.5-1.5,0.6c-0.5,0.2-1,0.3-1.5,0.3
		c-0.8,0-1.4-0.3-1.9-0.9c-0.4-0.6-0.6-1.2-0.6-2c0-0.7,0.2-1.5,0.5-2.4s0.8-1.8,1.4-2.8c0.6-1,1.3-1.9,2-2.9c0.8-1,1.6-1.9,2.5-2.7
		c1.7-1.6,3.5-3,5.4-4c1.9-1,3.6-1.6,5.2-1.6C104.3,53.8,105.2,54,105.9,54.5z M95,66.1c1-0.8,1.9-1.7,2.9-2.7c1-1,1.8-1.8,2.6-2.7
		c0.8-0.8,1.4-1.6,1.8-2.2c0.5-0.6,0.7-1.1,0.6-1.3c-0.1-0.2-0.3-0.4-0.6-0.4c-0.3,0-0.9,0.2-1.7,0.5h0.1c-0.9,0.4-1.9,1.1-3.1,1.9
		c-1.2,0.8-2.3,1.8-3.5,2.9c-0.2,0.2-0.6,0.6-1.1,1.3s-1.1,1.4-1.6,2.1c-0.5,0.8-1,1.5-1.3,2.2c-0.4,0.7-0.4,1.3-0.2,1.6
		c0.1,0.1,0.4,0.1,0.7,0c0.4-0.2,0.8-0.4,1.2-0.7c0.5-0.3,1-0.7,1.5-1.2C93.8,67,94.4,66.5,95,66.1L95,66.1z"/>
	<path d="M117.6,59.9c-0.2,0-0.4,0-0.5,0c-0.1,0-0.3,0-0.5,0.1c-0.1,0-0.4,0-0.9,0c-0.5,0-0.8,0-1,0l0.9-1.3
		c0.1-0.1,0.2-0.3,0.3-0.4c0.1-0.1,0.2-0.2,0.3-0.3c-0.5,0.3-1.3,0.8-2.2,1.6c-0.9,0.8-1.8,1.8-2.7,2.9c-0.9,1.1-1.6,2.2-2.3,3.5
		c-0.6,1.2-1,2.4-1,3.5c-0.1,0.6,1.1,0.4,3.6-0.5h-0.1c1.7-0.7,3.5-1.6,5.3-2.7c1.8-1.1,3.5-2.2,5.2-3.4l0.8,1.1l0.9,1.3
		c-1.8,1.3-3.5,2.5-5.3,3.5c-1.7,1.1-3.6,2-5.5,2.9c-2.1,1-3.8,1.5-5.2,1.5c-1,0-1.7-0.2-2.2-0.7c-0.5-0.4-0.8-1-0.9-1.7
		c-0.1-0.7-0.1-1.4,0-2.2c0.1-0.8,0.3-1.5,0.6-2.2l-0.1,0.1c0.3-0.8,0.7-1.8,1.4-2.9c0.7-1.1,1.5-2.2,2.4-3.3c0.9-1,1.8-1.9,2.9-2.8
		c1-0.9,2.1-1.6,3.1-2.2c1-0.6,2-1,2.9-1.3s1.7-0.2,2.3,0.1c0.3,0.3,0.5,0.7,0.3,1.4c-0.1,0.6-0.3,1.3-0.7,2
		c-0.3,0.7-0.7,1.3-1.1,1.8C118.1,59.7,117.8,59.9,117.6,59.9z"/>
	<path d="M148,31c-1.3,1.8-2.6,3.6-4.1,5.6c-1.4,2-2.8,4-4.3,6c-1.4,2.1-2.9,4.1-4.4,6.2c-1.5,2.1-2.9,4.1-4.3,6.1
		c0.6-0.3,1.4-0.6,2.2-0.9c0.8-0.3,1.6-0.5,2.4-0.5c1.2,0,2.1,0.3,2.5,0.9c0.5,0.6,0.6,1.3,0.6,2.1c-0.1,0.8-0.4,1.6-0.9,2.4
		c-0.5,0.8-1.2,1.5-1.9,1.9c-0.6,0.4-1.2,0.7-1.8,1c-0.6,0.3-1.2,0.6-1.7,0.8l-1.5,0.8c-0.1,0.1-0.3,0.2-0.6,0.3
		c-0.3,0.1-0.6,0.3-0.9,0.5c-0.3,0.2-0.5,0.4-0.8,0.6c-0.2,0.2-0.3,0.4-0.3,0.6c0.1,0.9,0.3,1.7,0.6,2.4s0.7,1.6,1.2,2.5l0.6,1.4
		l-2.9,2c-0.3-0.5-0.7-1.1-1.1-1.9c-0.4-0.8-0.8-1.6-1.1-2.4c-0.3-0.8-0.6-1.6-0.9-2.4c-0.2-0.8-0.4-1.5-0.5-2.1c0,0,0-0.1,0-0.1
		s0,0,0-0.1c-1,1.4-1.9,2.8-2.8,4.2c-0.9,1.4-1.7,2.7-2.5,3.9h-4.4c2.1-3.1,4.4-6.4,6.7-9.8c2.4-3.5,4.8-7,7.2-10.5
		c2.4-3.6,4.9-7.1,7.3-10.6c2.4-3.5,4.8-6.9,7.1-10L148,31z M126.1,62.1c0.4-0.3,0.9-0.5,1.5-0.8c0.5-0.2,1.1-0.5,1.7-0.7
		c0.8-0.4,1.7-0.8,2.6-1.2c0.9-0.4,1.8-1,2.6-1.5c0.2-0.2,0.3-0.3,0.2-0.4c-0.1-0.1-0.3-0.1-0.7,0c-0.5,0.2-1.2,0.5-1.8,0.8
		s-1.4,0.7-2.1,1.1c-0.7,0.4-1.4,0.8-2,1.3c-0.6,0.4-1.2,0.9-1.7,1.3L126.1,62.1z"/>
	<path d="M201,25c0,1.1-0.1,2-0.3,2.9s-0.5,1.6-0.8,2.3c-0.4,0.7-0.8,1.4-1.3,2c-0.5,0.6-1.1,1.3-1.6,2.1l-0.8,1
		c-2.2,2.8-4.7,5.5-7.3,8.3c-2.6,2.8-5.2,5.5-7.8,8.1c-2.1,2.1-4.2,4.3-6.2,6.5s-4.1,4.4-6.1,6.7c-2,2.3-3.9,4.6-5.8,7
		c-1.9,2.4-3.6,4.8-5.1,7.3c-0.5,0.8-0.9,1.4-1.1,1.9c-0.2,0.5-0.3,0.9-0.3,1.1c0,0.1,0.1,0.2,0.2,0.2s0.3,0,0.5-0.1
		c0.2-0.1,0.4-0.1,0.6-0.2c0.2-0.1,0.4-0.2,0.5-0.3c2.7-1.3,5.6-2.4,8.6-3.4c3-0.9,6.1-1.7,9.4-2.2c3.2-0.6,6.5-1,9.9-1.2
		c3.4-0.2,6.8-0.4,10.2-0.4l-6.1,3.7c-2.8,0-5.6,0.1-8.4,0.4c-2.8,0.3-5.6,0.8-8.2,1.4c-2.6,0.6-5,1.2-7.3,2
		c-2.2,0.8-4.1,1.5-5.7,2.3c-0.6,0.3-1.3,0.7-2.1,0.9c-0.7,0.3-1.5,0.5-2.2,0.7c-0.7,0.2-1.3,0.2-1.9,0.2c-0.6-0.1-1.1-0.3-1.4-0.6
		c-0.3-0.4-0.5-0.9-0.6-1.6c0-0.7,0.2-1.7,0.6-2.9c1-2.2,2.2-4.4,3.5-6.5s2.8-4.1,4.3-6c2.6-3.3,5.3-6.4,8.1-9.4c2.8-3,5.7-6,8.6-9
		c3-3.1,5.9-6.2,8.8-9.3c2.9-3.1,5.7-6.3,8.3-9.7c0.7-0.9,1.4-1.9,2-3.1s0.9-2.4,0.9-3.6c0-0.2,0-0.4-0.1-0.6c0-0.2-0.1-0.5-0.2-0.8
		c-0.1-0.3-0.2-0.7-0.4-1.2c-0.2-0.5-0.5-1.2-0.8-2L201,25z"/>
	<path d="M209.2,53.9c0.7,0.2,1.3,0.5,1.6,0.9c0.3,0.4,0.5,1,0.5,1.6c0,0.8-0.2,1.6-0.6,2.5c-0.4,0.9-0.9,1.8-1.5,2.7
		c-0.6,0.9-1.2,1.7-1.9,2.5s-1.3,1.4-1.8,2c0,0.4,0,0.7,0.1,0.9c0.1,0.2,0.4,0.1,0.8-0.1c0.8-0.4,1.5-0.8,2.1-1.3
		c0.6-0.5,1.2-0.9,1.6-1.2l1.7-1.2l0.3,3.3l-1.2,0.9c-0.6,0.4-1.3,0.9-2.1,1.5c-0.8,0.5-1.6,1-2.4,1.4c-0.6,0.3-1.1,0.5-1.6,0.5
		c-0.6,0-1.1-0.2-1.5-0.5c-0.4-0.3-0.8-0.8-1.1-1.4c-0.6,0.5-1.3,1-2,1.6c-0.7,0.5-1.5,1-2.2,1.4s-1.5,0.7-2.2,1
		c-0.7,0.3-1.4,0.4-2,0.4c-0.8,0-1.5-0.3-2-0.9s-0.8-1.3-0.8-2.1c0-0.7,0.2-1.5,0.5-2.4s0.8-1.8,1.4-2.8c0.6-1,1.3-1.9,2-2.9
		c0.8-1,1.6-1.9,2.5-2.7c1-0.9,2-1.7,3-2.5c1.1-0.8,2.1-1.4,3.2-1.9c1.1-0.5,2.1-0.9,3.1-1.1C207.5,53.7,208.4,53.7,209.2,53.9z
		 M205.4,60.3c0.1,0.2,0.2,0.5,0.3,0.7c0.6-0.8,1.1-1.6,1.5-2.2c0.5-1.1,0.6-1.8,0.3-2c-0.3-0.2-1,0-2.2,0.6
		c-1.9,0.9-3.6,2.1-5.1,3.6c-1.5,1.5-3,3.3-4.4,5.2c-0.7,1.1-1.2,2-1.4,2.5c-0.2,0.5-0.2,0.9,0,1c0.2,0.2,0.5,0.1,1-0.1
		c0.5-0.2,1.1-0.5,1.7-0.9c0.6-0.4,1.3-0.9,2-1.4c0.7-0.5,1.4-1.1,2-1.6c0-0.3-0.1-0.5-0.1-0.8c0-0.3,0-0.5,0-0.8
		c0-0.7,0.1-1.4,0.3-2c0.2-0.6,0.4-1.1,0.6-1.6s0.6-0.8,0.9-1.1c0.3-0.3,0.7-0.4,1-0.4C204.4,59.2,205,59.5,205.4,60.3L205.4,60.3z"
		/>
	<path d="M210.9,64.4c0.5-0.8,1.1-1.7,1.8-2.6c0.7-0.9,1.4-1.8,2.2-2.7c0.8-0.9,1.6-1.7,2.4-2.6c0.8-0.8,1.6-1.6,2.4-2.3
		c0.2-0.1,0.5-0.1,0.9-0.2c0.4-0.1,0.9-0.1,1.3,0c0.4,0,0.8,0.1,1.2,0.3c0.3,0.1,0.5,0.4,0.6,0.7c-0.9,0.6-1.9,1.5-2.9,2.4
		c-1,1-1.9,1.9-2.8,2.9c-0.9,1-1.7,1.9-2.3,2.7c-0.7,0.8-1.2,1.5-1.4,1.9v-0.1c-0.6,0.9-1.1,1.8-1.6,2.7c-0.5,0.9-0.7,1.6-0.6,2
		c0.1,0.1,0.5,0,1.1-0.5c0.6-0.4,1.4-1.1,2.3-1.9c0.9-0.8,1.9-1.8,3-2.8s2.2-2.1,3.2-3.2c1.1-1.1,2-2.1,3-3.1s1.7-1.8,2.3-2.4
		l1.3-1.4h4c-1,1.1-1.9,2-2.7,2.9c-0.8,0.8-1.5,1.6-2.2,2.3c-0.7,0.7-1.3,1.4-1.9,2c-0.6,0.6-1.1,1.2-1.7,1.8
		c-0.3,0.4-0.8,1-1.3,1.8c-0.5,0.7-0.9,1.4-1.3,2.1c-0.4,0.7-0.7,1.2-0.8,1.6c-0.1,0.4,0,0.5,0.4,0.2H221l8.6-5.8l0.3,3.3l-0.7,0.5
		c-0.6,0.4-1.3,0.9-2.1,1.5c-0.8,0.6-1.7,1.1-2.5,1.7c-0.9,0.6-1.7,1.1-2.6,1.6c-0.8,0.5-1.5,0.8-2.1,1c-1.1,0.4-1.8,0.4-2.2,0.1
		c-0.4-0.3-0.6-0.8-0.6-1.5c0-0.2,0-0.4,0-0.6c0-0.2,0.1-0.4,0.1-0.6c-0.4,0.3-0.8,0.6-1.3,1c-0.5,0.4-0.9,0.7-1.5,1
		c-0.5,0.3-1,0.6-1.6,0.7s-1.1,0.3-1.7,0.3c-0.4,0-0.7-0.1-1.1-0.2c-0.3-0.2-0.6-0.4-0.9-0.6c-0.2-0.3-0.3-0.6-0.4-0.9
		c-0.1-0.3-0.2-0.7-0.2-1.1c0-0.8,0.2-1.7,0.6-2.7S210.3,65.5,210.9,64.4z"/>
	<path d="M230.8,69c0.3-0.2,0.8-0.4,1.3-0.7c0.5-0.3,1-0.7,1.6-1c0.5-0.4,1.1-0.8,1.7-1.1c0.6-0.4,1.1-0.8,1.6-1.1
		c0.4-0.3,0.8-0.6,1.4-0.9c0.6-0.4,1-0.6,1.2-0.8l0.3,3.3c-0.3,0.2-0.7,0.5-1.1,0.8c-0.4,0.3-0.9,0.7-1.3,1
		c-1.1,0.9-2.3,1.7-3.6,2.6c-1.3,0.9-2.4,1.5-3.4,1.9c-0.8,0.2-1.4,0.3-1.9,0.1c-0.5-0.2-0.9-0.5-1.2-1s-0.4-1-0.4-1.6
		c0-0.6,0.1-1.3,0.2-1.9c0.4-1.3,0.9-2.7,1.7-4.1c0.7-1.4,1.6-2.7,2.4-4s1.7-2.5,2.6-3.6c0.9-1.1,1.6-2.1,2.3-2.9h4.4
		c-0.3,0.3-0.8,0.8-1.4,1.4c-0.6,0.6-1.2,1.4-1.9,2.3c-0.7,0.9-1.4,1.8-2.1,2.8c-0.7,1-1.4,2-2,3c-0.6,1-1.1,2-1.6,2.9
		s-0.8,1.7-1,2.4c-0.1,0.2-0.1,0.4-0.1,0.5C230.5,69.1,230.6,69.1,230.8,69z M238.8,47.3c0-0.9,0.3-1.7,1-2.3c0.6-0.7,1.4-1,2.3-1
		c0.9,0,1.7,0.3,2.3,1c0.7,0.7,1,1.4,1,2.3c0,0.9-0.3,1.7-1,2.3c-0.7,0.6-1.4,1-2.3,1c-0.9,0-1.7-0.3-2.3-1
		C239.1,49,238.8,48.2,238.8,47.3z"/>
	<path d="M251.3,59.3c-0.5,0.6-1.1,1.3-2,1.9c-0.9,0.7-1.8,1.4-2.8,2c-1,0.7-2.1,1.3-3.1,1.9c-1.1,0.6-2,1.1-2.9,1.6
		c-0.3,0.7-0.5,1.3-0.6,1.9c-0.1,0.5,0,0.9,0.2,1.2s0.6,0.4,1,0.4c0.5,0,1.1-0.2,2-0.6v0.1c0.7-0.3,1.6-0.6,2.4-1.1
		c0.9-0.5,1.8-1,2.7-1.6c0.9-0.6,1.8-1.2,2.7-1.8c0.9-0.6,1.8-1.2,2.6-1.9l0.7,3c-1.1,0.8-2.2,1.6-3.4,2.5c-1.2,0.8-2.3,1.6-3.5,2.3
		c-1.2,0.7-2.3,1.2-3.4,1.7s-2.2,0.6-3.2,0.6c-1,0-1.7-0.2-2.3-0.7s-1-1-1.2-1.7c-0.3-0.7-0.4-1.5-0.4-2.3c0-0.9,0.2-1.7,0.4-2.6
		c0.3-1,0.9-2.1,1.6-3.4c0.7-1.3,1.6-2.6,2.6-3.8c1-1.2,2.1-2.3,3.3-3.3c1.2-1,2.5-1.5,3.7-1.8c0.8-0.1,1.5,0,2.1,0.3
		c0.6,0.3,1,0.8,1.4,1.3s0.4,1.2,0.4,1.9C252.1,58,251.8,58.7,251.3,59.3z M246.6,58c-0.9,0.9-1.6,1.5-2.1,2.1
		c-0.5,0.5-0.9,1.1-1.4,1.7c0.5-0.3,1.1-0.6,1.6-1c0.5-0.3,1-0.7,1.6-1.1c0.7-0.5,1.3-1.1,1.8-1.6c0.5-0.5,0.8-1,0.8-1.5
		c0-0.1-0.4,0.1-1.2,0.5c-0.2,0.1-0.4,0.2-0.6,0.4C247,57.7,246.8,57.9,246.6,58L246.6,58z"/>
</g>
</svg>
