<?xml version="1.0" encoding="utf-8"?>
<!-- Generator: Adobe Illustrator 19.2.1, SVG Export Plug-In . SVG Version: 6.00 Build 0)  -->
<svg version="1.1" id="Layer_1" xmlns="http://www.w3.org/2000/svg" xmlns:xlink="http://www.w3.org/1999/xlink" x="0px" y="0px"
	 viewBox="0 0 391.8 147.6" style="enable-background:new 0 0 391.8 147.6;" xml:space="preserve">
<style type="text/css">
	.st0{fill:#FFFFFF;}
	.st1{enable-background:new    ;}
</style>
<title>Untitled-1</title>
<path class="st0" d="M2,146.1v-21.9h9.7c1,0,2,0.2,2.9,0.5c0.8,0.3,1.6,0.9,2.2,1.5c0.6,0.7,1.1,1.4,1.4,2.3
	c0.3,0.9,0.5,1.8,0.5,2.8c0,0.9-0.2,1.9-0.5,2.8c-0.3,0.8-0.8,1.6-1.4,2.2c-0.6,0.6-1.4,1.1-2.2,1.4c-0.9,0.4-1.9,0.5-2.9,0.5H6.6v8
	L2,146.1L2,146.1L2,146.1z M10.9,134.5c1,0.1,2.1-0.2,2.8-0.9c0.6-0.6,0.9-1.5,0.9-2.4c0-0.8-0.3-1.7-0.9-2.3
	c-0.8-0.7-1.8-1-2.8-0.9H6.6v6.4L10.9,134.5L10.9,134.5z"/>
<path class="st0" d="M27.5,146.6c-1.2,0-2.4-0.2-3.5-0.6c-2-0.8-3.6-2.4-4.3-4.4c-0.4-1.1-0.6-2.3-0.6-3.5c0-1.2,0.2-2.4,0.6-3.5
	c0.4-1,0.9-1.9,1.7-2.7c0.7-0.8,1.6-1.4,2.6-1.8c1.1-0.4,2.3-0.6,3.5-0.6c1.2,0,2.4,0.2,3.5,0.6c2,0.8,3.5,2.4,4.2,4.4
	c0.4,1.1,0.6,2.3,0.6,3.5c0,1.2-0.2,2.4-0.6,3.5c-0.4,1-0.9,1.9-1.7,2.7c-0.7,0.8-1.6,1.4-2.6,1.8C29.9,146.4,28.7,146.6,27.5,146.6
	z M27.5,143c2.6,0,3.9-1.7,3.9-5s-1.3-5-3.9-5c-2.6,0-3.9,1.6-3.9,4.9S24.9,142.9,27.5,143L27.5,143z"/>
<path class="st0" d="M37.3,128v-4h4.3v4H37.3z M37.3,146.2v-16.3h4.3v16.2L37.3,146.2L37.3,146.2z"/>
<path class="st0" d="M53.8,146.1v-9.8c0.1-0.9-0.1-1.8-0.6-2.5c-0.6-0.5-1.4-0.7-2.1-0.7c-2.2,0-3.3,1.2-3.3,3.7v9.3h-4.3v-16.2h4.1
	v2.4c0.5-0.9,1.1-1.6,2-2.1c1-0.5,2.1-0.8,3.2-0.7c0.7,0,1.5,0.1,2.2,0.3c0.6,0.2,1.2,0.5,1.7,1c0.5,0.5,0.9,1.1,1.1,1.7
	c0.3,0.7,0.4,1.5,0.4,2.3v11.3L53.8,146.1L53.8,146.1z"/>
<path class="st0" d="M69,135.4h4v4.6c0,0.8-0.1,1.7-0.4,2.5c-0.2,0.8-0.7,1.5-1.2,2.1c-0.6,0.6-1.2,1.1-2,1.4c-1,0.4-2,0.6-3,0.5
	c-1,0-2-0.2-3-0.5c-0.8-0.3-1.5-0.8-2.1-1.4c-0.5-0.6-0.9-1.3-1.2-2.1c-0.2-0.8-0.4-1.7-0.4-2.5v-14.5h4.2v4.4h9v3h-9v6.7
	c0,0.8,0.2,1.7,0.6,2.4c0.4,0.6,1.2,0.9,1.9,0.8c0.7,0.1,1.4-0.3,1.9-0.8c0.4-0.7,0.7-1.5,0.6-2.3L69,135.4L69,135.4z"/>
<path class="st0" d="M87.2,146.1v-5.6c0.1-0.8-0.2-1.6-0.7-2.3c-0.8-0.5-1.8-0.8-2.7-0.7h-4.9v8.6h-4.5v-21.9h11.2
	c0.9,0,1.9,0.2,2.8,0.5c0.8,0.3,1.5,0.7,2.1,1.3c0.6,0.6,1.1,1.2,1.4,2c0.3,0.8,0.5,1.7,0.5,2.5c0,1.1-0.3,2.2-0.8,3.1
	c-0.6,0.9-1.4,1.6-2.4,1.9c0.8,0.2,1.6,0.7,2.1,1.4c0.5,0.9,0.7,1.9,0.6,2.9v6.2L87.2,146.1L87.2,146.1L87.2,146.1z M78.9,128v5.8
	h5.7c0.9,0.1,1.9-0.2,2.6-0.8c1-1.2,1-3,0-4.2c-0.7-0.6-1.5-0.9-2.4-0.8H78.9z"/>
<path class="st0" d="M106.1,136.9v9.2h-4.6v-21.9h15.6v3.8h-11v5h9.6v3.9L106.1,136.9L106.1,136.9z"/>
<path class="st0" d="M118.2,128v-4h4.3v4H118.2z M118.2,146.2v-16.3h4.3v16.2L118.2,146.2L118.2,146.2z"/>
<path class="st0" d="M134.7,146.1v-9.8c0.1-0.9-0.1-1.8-0.6-2.5c-0.6-0.5-1.4-0.7-2.1-0.7c-2.2,0-3.3,1.2-3.3,3.7v9.3h-4.3v-16.2
	h4.1v2.4c0.5-0.9,1.1-1.6,2-2.1c1-0.5,2.1-0.8,3.2-0.7c0.7,0,1.5,0.1,2.1,0.4c0.6,0.2,1.2,0.5,1.7,1c0.5,0.5,0.9,1.1,1.1,1.7
	c0.3,0.7,0.4,1.5,0.4,2.3v11.3L134.7,146.1L134.7,146.1z"/>
<path class="st0" d="M150.9,146.1c-0.1-0.5-0.2-1-0.3-1.4c-0.6,0.6-1.2,1.1-2,1.4c-0.9,0.4-1.9,0.5-2.9,0.5
	c-1.5,0.1-2.9-0.3-4.1-1.2c-0.9-0.8-1.3-2-1.3-3.2c0-1,0.1-1.9,0.6-2.8c0.4-0.7,0.9-1.2,1.6-1.6c0.7-0.4,1.5-0.7,2.4-0.9
	c0.9-0.2,1.9-0.4,3-0.5c0.8-0.1,1.5-0.3,2.2-0.6c0.7-0.5,0.8-1.5,0.2-2.1c-0.1-0.1-0.3-0.3-0.4-0.4c-0.6-0.3-1.3-0.5-2-0.4
	c-0.8-0.1-1.5,0.2-2.1,0.7c-0.4,0.5-0.7,1.1-0.8,1.8h-4c0-0.8,0.2-1.6,0.4-2.3c0.2-0.7,0.7-1.3,1.2-1.8c0.6-0.5,1.4-0.9,2.2-1.2
	c1.1-0.3,2.2-0.4,3.3-0.4c1.1,0,2.2,0.1,3.3,0.4c0.8,0.2,1.5,0.7,2.1,1.2c0.6,0.6,1,1.2,1.2,2c0.3,0.9,0.4,1.8,0.4,2.7v10.3
	L150.9,146.1L150.9,146.1z M150.6,138.1c-0.3,0.3-0.6,0.4-1,0.5c-0.6,0.2-1.2,0.3-1.8,0.4c-0.9,0.1-1.8,0.4-2.5,0.9
	c-0.5,0.4-0.7,1-0.7,1.6c0,1.2,0.7,1.8,2.1,1.8c0.5,0,1-0.1,1.5-0.3c0.9-0.4,1.6-1,2-1.9c0.2-0.4,0.3-0.9,0.3-1.4L150.6,138.1z"/>
<path class="st0" d="M167,146.1v-9.8c0.1-0.9-0.1-1.8-0.6-2.5c-0.6-0.5-1.4-0.7-2.1-0.7c-2.2,0-3.3,1.2-3.3,3.7v9.3h-4.3v-16.2h4.1
	v2.4c0.5-0.9,1.1-1.6,2-2.1c1-0.5,2.1-0.8,3.2-0.7c0.7,0,1.5,0.1,2.1,0.4c0.6,0.2,1.2,0.5,1.7,1c0.5,0.5,0.9,1.1,1.1,1.7
	c0.3,0.7,0.4,1.5,0.4,2.3v11.3L167,146.1L167,146.1z"/>
<path class="st0" d="M187.7,140.3c-0.1,0.9-0.4,1.8-0.8,2.6c-0.4,0.8-1,1.4-1.6,2c-0.7,0.6-1.4,1-2.3,1.3c-0.9,0.3-1.8,0.5-2.8,0.5
	c-1,0-2-0.2-3-0.5c-0.9-0.4-1.7-0.9-2.4-1.6c-0.7-0.8-1.2-1.7-1.5-2.7c-0.4-1.2-0.6-2.5-0.5-3.8c0-1.3,0.2-2.5,0.5-3.8
	c0.3-1,0.8-1.9,1.5-2.6c0.7-0.7,1.5-1.2,2.4-1.5c1-0.3,2.1-0.5,3.1-0.5c1,0,2,0.1,2.9,0.4c0.8,0.3,1.6,0.7,2.3,1.3
	c0.6,0.6,1.2,1.2,1.5,2c0.4,0.8,0.6,1.7,0.7,2.6h-4.3c-0.1-0.8-0.4-1.5-1-2c-0.6-0.5-1.3-0.7-2.1-0.7c-0.4,0-0.9,0.1-1.3,0.2
	c-0.4,0.2-0.7,0.4-1,0.8c-0.3,0.4-0.6,0.9-0.7,1.4c-0.2,0.7-0.3,1.5-0.3,2.2c-0.1,1.4,0.3,2.8,1,4c0.5,0.8,1.3,1.3,2.2,1.3
	c0.8,0,1.5-0.2,2.1-0.7c0.6-0.5,1-1.2,1-2L187.7,140.3L187.7,140.3z"/>
<path class="st0" d="M188.9,128v-4h4.3v4H188.9z M188.9,146.2v-16.3h4.3v16.2L188.9,146.2L188.9,146.2z"/>
<path class="st0" d="M205.1,146.1c-0.1-0.5-0.2-1-0.3-1.4c-0.6,0.6-1.2,1.1-2,1.4c-0.9,0.4-1.9,0.5-2.9,0.5
	c-1.5,0.1-2.9-0.3-4.1-1.2c-0.9-0.8-1.3-2-1.3-3.2c0-1,0.1-1.9,0.6-2.8c0.4-0.7,0.9-1.2,1.6-1.6c0.7-0.4,1.5-0.7,2.4-0.9
	c0.9-0.2,1.9-0.4,3-0.5c0.8-0.1,1.5-0.3,2.2-0.6c0.7-0.5,0.8-1.5,0.2-2.1c-0.1-0.1-0.3-0.3-0.4-0.4c-0.6-0.3-1.3-0.5-2-0.4
	c-0.8-0.1-1.5,0.2-2.1,0.7c-0.4,0.5-0.7,1.1-0.8,1.8h-4c0-0.8,0.2-1.6,0.4-2.3c0.2-0.7,0.7-1.3,1.2-1.8c0.6-0.5,1.4-0.9,2.1-1.2
	c1.1-0.3,2.2-0.4,3.3-0.4c1.1,0,2.2,0.1,3.3,0.4c0.8,0.2,1.5,0.7,2.1,1.2c0.5,0.6,1,1.2,1.2,2c0.3,0.9,0.4,1.8,0.4,2.7v10.3
	L205.1,146.1L205.1,146.1z M204.8,138.1c-0.3,0.3-0.6,0.4-1,0.5c-0.6,0.2-1.2,0.3-1.8,0.4c-0.9,0.1-1.8,0.4-2.5,0.9
	c-0.5,0.4-0.7,1-0.7,1.6c0,1.2,0.7,1.8,2.1,1.8c0.5,0,1-0.1,1.5-0.3c0.9-0.4,1.6-1,2-1.9c0.2-0.4,0.3-0.9,0.3-1.4L204.8,138.1z"/>
<path class="st0" d="M210.9,146.1V124h4.3v22.2L210.9,146.1L210.9,146.1z"/>
<g class="st1">
	<path class="st0" d="M15.3,72.1v27.8H1.5V34h46.9v11.5H15.3v15h29v11.6H15.3z"/>
	<path class="st0" d="M63.2,78.8c0.2,3.7,1.3,6.6,3.2,8.8c1.9,2.2,4.5,3.3,7.7,3.3c2.1,0,4-0.5,5.6-1.4c1.6-1,2.7-2.3,3.1-4h13.3
		c-1.5,5-4.2,8.9-7.9,11.6c-3.8,2.7-8.3,4.1-13.5,4.1c-16.3,0-24.4-8.9-24.4-26.6c0-3.8,0.5-7.2,1.6-10.2c1.1-3,2.6-5.7,4.6-7.8
		c2-2.2,4.5-3.9,7.4-5c2.9-1.2,6.2-1.7,10-1.7c7.5,0,13.2,2.4,17.1,7.2c3.9,4.8,5.8,12.1,5.8,21.8H63.2z M83.5,70.7
		c-0.1-1.8-0.4-3.4-0.9-4.7c-0.6-1.4-1.3-2.5-2.2-3.4c-0.9-0.9-2-1.6-3.2-2C76,60.2,74.8,60,73.5,60c-2.6,0-4.8,0.9-6.7,2.8
		c-1.9,1.9-3,4.5-3.2,7.9H83.5z"/>
	<path class="st0" d="M112.6,78.8c0.2,3.7,1.3,6.6,3.2,8.8c1.9,2.2,4.5,3.3,7.7,3.3c2.1,0,4-0.5,5.6-1.4c1.6-1,2.7-2.3,3.1-4h13.3
		c-1.5,5-4.2,8.9-7.9,11.6c-3.8,2.7-8.3,4.1-13.5,4.1c-16.3,0-24.4-8.9-24.4-26.6c0-3.8,0.5-7.2,1.6-10.2c1.1-3,2.6-5.7,4.6-7.8
		c2-2.2,4.5-3.9,7.4-5c2.9-1.2,6.2-1.7,10-1.7c7.5,0,13.2,2.4,17.1,7.2c3.9,4.8,5.8,12.1,5.8,21.8H112.6z M132.9,70.7
		c-0.1-1.8-0.4-3.4-0.9-4.7c-0.6-1.4-1.3-2.5-2.2-3.4c-0.9-0.9-2-1.6-3.2-2c-1.2-0.4-2.4-0.6-3.7-0.6c-2.6,0-4.8,0.9-6.7,2.8
		c-1.9,1.9-3,4.5-3.2,7.9H132.9z"/>
	<path class="st0" d="M184,99.9l-0.1-5.9c-3,4.8-7.5,7.2-13.6,7.2c-3.1,0-5.9-0.6-8.5-1.8c-2.6-1.2-4.8-2.9-6.6-5.2
		c-1.9-2.2-3.3-5-4.4-8.2c-1.1-3.2-1.6-6.9-1.6-11c0-3.7,0.4-7.1,1.3-10.2c0.9-3.1,2.2-5.7,3.9-8c1.7-2.2,3.8-4,6.3-5.2
		c2.5-1.2,5.3-1.8,8.5-1.8c6,0,10.8,2.5,14.5,7.6V33.2h12.7v66.6H184z M173.3,90.6c3.1,0,5.7-1.3,7.8-3.9c2.1-2.6,3.1-5.9,3.1-10.1
		c0-10.6-3.6-15.9-10.8-15.9c-7.4,0-11.1,5-11.1,15.1c0,4.4,1,7.9,3.1,10.7C167.4,89.3,170.1,90.6,173.3,90.6z"/>
	<path class="st0" d="M201.6,99.9V33.2h12.7v24.2c3.6-5.1,8.5-7.6,14.5-7.6c3.2,0,6,0.6,8.5,1.8c2.5,1.2,4.6,3,6.3,5.2
		c1.7,2.2,3,4.9,3.9,8c0.9,3.1,1.3,6.5,1.3,10.2c0,4.1-0.5,7.8-1.6,11c-1.1,3.2-2.5,6-4.4,8.2c-1.9,2.2-4.1,4-6.7,5.2
		c-2.6,1.2-5.4,1.8-8.5,1.8c-6.1,0-10.6-2.4-13.6-7.2l-0.1,5.9H201.6z M224.7,90.6c3.2,0,5.9-1.4,7.9-4.1c2-2.7,3.1-6.3,3.1-10.7
		c0-10-3.7-15.1-11.1-15.1c-7.2,0-10.8,5.3-10.8,15.9c0,4.2,1,7.5,3.1,10.1C219,89.3,221.6,90.6,224.7,90.6z"/>
	<path class="st0" d="M283.6,99.9c-0.4-1.3-0.7-2.7-0.8-4.4c-1.5,1.7-3.5,3.1-6,4.1c-2.5,1-5.4,1.5-8.7,1.5c-5.6,0-9.7-1.2-12.3-3.7
		c-2.6-2.5-3.9-5.7-3.9-9.7c0-3.5,0.6-6.3,1.7-8.4c1.1-2.1,2.7-3.7,4.7-4.9c2-1.2,4.3-2.1,7.1-2.6c2.7-0.6,5.7-1.1,9-1.5
		c3.2-0.5,5.4-1.1,6.5-1.8c1.1-0.8,1.7-2,1.7-3.7c0-1.6-0.7-2.8-2.2-3.7c-1.5-0.9-3.5-1.3-6-1.3c-3,0-5.1,0.7-6.4,2
		c-1.3,1.3-2.1,3.1-2.4,5.3h-12c0.1-2.5,0.5-4.8,1.2-6.9c0.8-2.1,2-3.9,3.7-5.5c1.7-1.5,3.9-2.7,6.6-3.5c2.7-0.8,6-1.2,9.9-1.2
		c3.8,0,7.1,0.4,9.8,1.3c2.7,0.9,4.8,2.1,6.4,3.7c1.6,1.6,2.8,3.6,3.5,6c0.7,2.4,1.1,5.1,1.1,8.2v30.8H283.6z M282.7,76
		c-0.7,0.7-1.6,1.2-2.9,1.6c-1.3,0.4-3.1,0.8-5.5,1.3c-3.7,0.7-6.2,1.7-7.6,2.8c-1.4,1.1-2.1,2.7-2.1,4.9c0,3.6,2.1,5.5,6.2,5.5
		c1.7,0,3.2-0.3,4.6-0.8c1.4-0.6,2.6-1.3,3.7-2.3c1-1,1.8-2.1,2.5-3.4c0.6-1.3,0.9-2.7,0.9-4.1L282.7,76z"/>
	<path class="st0" d="M344.7,82.2c-0.3,2.8-1.1,5.4-2.4,7.7c-1.3,2.3-2.9,4.3-4.9,5.9c-2,1.7-4.2,2.9-6.8,3.9
		c-2.5,0.9-5.3,1.4-8.3,1.4c-3.3,0-6.3-0.5-9.1-1.6c-2.7-1.1-5.1-2.7-7.1-5c-2-2.2-3.5-5-4.6-8.2c-1.1-3.3-1.6-7.1-1.6-11.5
		c0-4.4,0.5-8.1,1.6-11.3c1.1-3.2,2.6-5.8,4.6-7.8c2-2,4.4-3.5,7.2-4.5c2.8-1,5.9-1.5,9.4-1.5c3.2,0,6.1,0.4,8.7,1.3
		c2.6,0.9,4.9,2.1,6.8,3.8c1.9,1.7,3.5,3.6,4.6,5.9c1.1,2.3,1.8,4.9,2,7.7h-13c-0.3-2.5-1.3-4.5-3-5.9c-1.7-1.4-3.8-2.1-6.2-2.1
		c-1.4,0-2.7,0.2-3.9,0.7c-1.2,0.5-2.2,1.2-3.1,2.3c-0.9,1.1-1.6,2.5-2.1,4.4c-0.5,1.8-0.8,4.1-0.8,6.7c0,5.4,1,9.3,2.9,11.9
		c1.9,2.6,4.1,3.9,6.6,3.9c2.5,0,4.7-0.7,6.4-2.1c1.8-1.4,2.8-3.4,3.1-6H344.7z"/>
	<path class="st0" d="M377.9,99.9l-10.7-21.9l-6.2,6.4v15.5h-13V33.2h13v36.4L377,51.1h15.8L376.4,69l16,30.8H377.9z"/>
</g>
</svg>
